1,0,Header,0,1,480
1,0,Start_track,,,
1,5,Note_on_c,0,76,0
1,10,Note_on_c,0,76,0
1,237,Note_on_c,0,76,0
1,278,Note_on_c,0,76,0
1,321,Note_on_c,0,76,0
1,331,Note_on_c,0,76,0
1,337,Note_on_c,0,76,127
1,341,Control_c,0,64,0
1,383,Note_on_c,0,76,0
1,391,Note_on_c,0,76,127
1,411,Control_c,0,7,0
1,497,Note_on_c,0,76,0
1,502,Note_on_c,0,76,0
1,505,Note_on_c,0,76,0
1,584,Note_on_c,0,76,0
1,588,Note_on_c,0,76,0
1,633,Note_on_c,0,76,0
1,664,Note_on_c,0,76,0
1,682,Note_on_c,0,76,0
1,720,Note_on_c,0,76,0
1,737,Note_on_c,0,76,0
1,738,Note_on_c,0,76,127
1,763,Control_c,0,7,127
1,789,Control_c,0,7,127
1,801,Control_c,0,7,0
1,829,Note_on_c,0,76,0
1,864,Note_on_c,0,76,0
1,900,Note_on_c,0,76,127
1,957,Control_c,0,7,0
1,968,Note_on_c,0,76,0
1,1039,Note_on_c,0,76,0
1,1052,Note_on_c,0,76,0
1,1083,Note_on_c,0,76,0
1,1091,Note_on_c,0,76,0
1,1114,Note_on_c,0,76,0
1,1115,Note_on_c,0,76,0
1,1126,Note_on_c,0,76,0
1,1145,Note_on_c,0,76,0
1,1145,Note_on_c,0,76,127
1,1153,Control_c,0,7,0
1,1183,Note_on_c,0,76,127
1,1193,Control_c,0,7,0
1,1223,Note_on_c,0,76,0
1,1236,Note_on_c,0,76,0
1,1262,Note_on_c,0,76,0
1,1303,Note_on_c,0,76,127
1,1327,Control_c,0,7,0
1,1331,Note_on_c,0,76,0
1,1357,Note_on_c,0,76,0
1,1376,Note_on_c,0,76,0
1,1449,Note_on_c,0,76,127
1,1471,Control_c,0,7,0
1,1477,Note_on_c,0,76,127
1,1480,Control_c,0,7,0
1,1505,Note_on_c,0,76,0
1,1508,Note_on_c,0,76,0
1,1526,Note_on_c,0,45,0
1,1534,Note_on_c,0,45,0
1,1557,Note_on_c,0,45,0
1,1576,Note_on_c,0,45,0
1,1583,Note_on_c,0,45,0
1,1618,Note_on_c,0,45,0
1,1618,Note_on_c,0,45,0
1,1655,Note_on_c,0,45,0
1,1657,Note_on_c,0,45,0
1,1702,Note_on_c,0,45,0
1,1894,Note_on_c,0,45,0
1,1913,Note_on_c,0,45,127
1,1916,Control_c,0,7,0
1,1926,Note_on_c,0,45,0
1,1937,Note_on_c,0,45,0
1,1961,Note_on_c,0,45,127
1,1990,Control_c,0,7,0
1,2109,Note_on_c,0,45,0
1,2127,Note_on_c,0,45,0
1,2215,Note_on_c,0,45,0
1,2227,Note_on_c,0,45,0
1,2251,Note_on_c,0,45,0
1,2329,Note_on_c,0,45,0
1,2350,Note_on_c,0,45,0
1,2446,Note_on_c,0,45,0
1,2480,Note_on_c,0,45,127
1,2579,Control_c,0,7,0
1,2631,Note_on_c,0,45,0
1,2652,Note_on_c,0,45,127
1,2688,Control_c,0,7,0
1,2694,Note_on_c,0,45,0
1,2718,Note_on_c,0,45,0
1,2731,Note_on_c,0,45,0
1,2739,Note_on_c,0,45,0
1,2788,Note_on_c,0,45,127
1,2826,Control_c,0,7,127
1,2862,Control_c,0,7,0
1,2867,Note_on_c,0,45,0
1,2869,Note_on_c,0,45,0
1,2941,Note_on_c,0,45,127
1,2949,Control_c,0,7,0
1,2961,Note_on_c,0,45,0
1,3016,Note_on_c,0,45,0
1,3024,Note_on_c,0,45,0
1,3045,Note_on_c,0,45,0
1,3090,Note_on_c,0,45,0
1,3098,Note_on_c,0,45,127
1,3150,Control_c,0,7,0
1,3169,Note_on_c,0,45,0
1,3220,Note_on_c,0,45,127
1,3243,Control_c,0,7,127
1,3249,Control_c,0,7,0
1,3255,Note_on_c,0,45,0
1,3259,Note_on_c,0,45,127
1,3262,Control_c,0,7,0
1,3282,Note_on_c,0,45,127
1,3301,Control_c,0,7,0
1,3306,Note_on_c,0,45,0
1,3383,Note_on_c,0,45,0
1,3414,Note_on_c,0,45,0
1,3472,Note_on_c,0,45,0
1,3511,Note_on_c,0,45,0
1,3546,Note_on_c,0,45,0
1,3567,Note_on_c,0,45,0
1,3611,Note_on_c,0,45,0
1,3647,Note_on_c,0,45,0
1,3662,Note_on_c,0,45,0
1,3674,Note_on_c,0,45,0
1,3686,Note_on_c,0,45,0
1,3738,Note_on_c,0,45,0
1,3759,Note_on_c,0,45,0
1,3857,Note_on_c,0,45,0
1,3890,Note_on_c,0,45,0
1,3891,Note_on_c,0,45,0
1,4002,Note_on_c,0,45,0
1,4009,Note_on_c,0,45,0
1,4016,Note_on_c,0,45,0
1,4075,Note_on_c,0,45,0
1,4088,Note_on_c,0,45,0
1,4090,Note_on_c,0,45,127
1,4122,Control_c,0,7,127
1,4150,Control_c,0,7,127
1,4200,Control_c,0,7,0
1,4218,Note_on_c,0,45,0
1,4225,Note_on_c,0,45,0
1,4287,Note_on_c,0,45,0
1,4299,Note_on_c,0,45,0
1,4302,Note_on_c,0,45,0
1,4359,Note_on_c,0,45,127
1,4397,Control_c,0,7,127
1,4531,Control_c,0,7,0
1,4532,Note_on_c,0,76,0
1,4566,Note_on_c,0,76,127
1,4571,Control_c,0,7,0
1,4575,Note_on_c,0,76,0
1,4606,Note_on_c,0,76,0
1,4619,Note_on_c,0,76,0
1,4645,Note_on_c,0,76,0
1,4645,Note_on_c,0,76,127
1,4715,Control_c,0,7,127
1,4755,Control_c,0,7,0
1,4800,Note_on_c,0,76,0
1,4801,Note_on_c,0,76,0
1,4807,Note_on_c,0,76,0
1,4814,Note_on_c,0,76,0
1,4898,Note_on_c,0,76,0
1,4911,Note_on_c,0,76,0
1,4928,Note_on_c,0,76,127
1,4940,Control_c,0,7,0
1,5021,Note_on_c,0,76,127
1,5051,Control_c,0,7,0
1,5137,Note_on_c,0,76,0
1,5167,Note_on_c,0,76,0
1,5168,Note_on_c,0,76,0
1,5187,Note_on_c,0,76,127
1,5233,Control_c,0,7,0
1,5308,Note_on_c,0,76,0
1,5340,Note_on_c,0,76,127
1,5353,Control_c,0,7,127
1,5482,Control_c,0,7,0
1,5482,Note_on_c,0,76,0
1,5510,Note_on_c,0,76,0
1,5578,Note_on_c,0,76,0
1,5584,Note_on_c,0,76,0
1,5595,Note_on_c,0,76,0
1,5613,Note_on_c,0,76,0
1,5665,Note_on_c,0,76,127
1,5687,Control_c,0,7,0
1,5690,Note_on_c,0,76,127
1,5762,Control_c,0,7,0
1,5787,Note_on_c,0,76,0
1,5800,Note_on_c,0,76,0
1,5810,Note_on_c,0,76,0
1,5815,Note_on_c,0,76,0
1,5905,Note_on_c,0,76,0
1,5945,Note_on_c,0,76,0
1,5962,Note_on_c,0,76,0
1,5970,Note_on_c,0,76,0
1,6020,Note_on_c,0,76,0
1,6021,Note_on_c,0,76,0
1,6027,Note_on_c,0,76,0
1,6063,Note_on_c,0,76,0
1,6100,Note_on_c,0,76,0
1,6114,Note_on_c,0,76,0
1,6123,Note_on_c,0,76,127
1,6159,Control_c,0,7,0
1,6227,Note_on_c,0,76,0
1,6229,Note_on_c,0,76,127
1,6253,Control_c,0,7,0
1,6322,Note_on_c,0,76,0
1,6409,Note_on_c,0,76,0
1,6410,Note_on_c,0,76,127
1,6411,Control_c,0,7,0
1,6420,Note_on_c,0,76,0
1,6423,Note_on_c,0,76,127
1,6486,Control_c,0,7,127
1,6547,Control_c,0,7,127
1,6557,Control_c,0,7,0
1,6577,Note_on_c,0,76,0
1,6595,Note_on_c,0,76,0
1,6624,Note_on_c,0,76,0
1,6636,Note_on_c,0,76,0
1,6644,Note_on_c,0,76,127
1,6656,Control_c,0,7,0
1,6675,Note_on_c,0,76,0
1,6785,Note_on_c,0,76,127
1,6803,Control_c,0,7,0
1,6845,Note_on_c,0,76,0
1,6861,Note_on_c,0,76,0
1,6871,Note_on_c,0,76,0
1,6887,Note_on_c,0,76,0
1,6928,Note_on_c,0,76,127
1,6932,Control_c,0,7,127
1,6994,Control_c,0,7,0
1,7052,Note_on_c,0,76,0
1,7108,Note_on_c,0,76,127
1,7239,Control_c,0,7,0
1,7269,Note_on_c,0,76,0
1,7274,Note_on_c,0,76,0
1,7279,Note_on_c,0,76,0
1,7296,Note_on_c,0,76,0
1,7309,Note_on_c,0,76,0
1,7362,Note_on_c,0,76,0
1,7401,Note_on_c,0,76,0
1,7465,Note_on_c,0,76,0
1,7484,Note_on_c,0,76,0
1,7535,Note_on_c,0,76,127
1,7544,Control_c,0,7,0
1,7575,Note_on_c,0,76,0
1,7596,Note_on_c,0,76,0
1,7616,Note_on_c,0,76,127
1,7645,Control_c,0,7,0
1,7646,Note_on_c,0,76,0
1,7738,Note_on_c,0,76,127
1,7748,Control_c,0,7,0
1,7776,Note_on_c,0,76,0
1,7792,Note_on_c,0,76,0
1,7864,Note_on_c,0,76,0
1,7970,Note_on_c,0,76,0
1,8021,Note_on_c,0,76,0
1,8117,Note_on_c,0,76,0
1,8132,Note_on_c,0,76,0
1,8177,Note_on_c,0,76,0
1,8187,Note_on_c,0,76,127
1,8196,Control_c,0,7,0
1,8197,Note_on_c,0,76,127
1,8219,Control_c,0,7,0
1,8343,Note_on_c,0,76,127
1,8358,Control_c,0,7,0
1,8360,Note_on_c,0,76,0
1,8364,Note_on_c,0,76,0
1,8368,Note_on_c,0,76,64
1,8419,Control_c,0,7,0
1,8480,Note_on_c,0,76,0
1,8490,Note_on_c,0,76,0
1,8519,Note_on_c,0,76,0
1,8522,Note_on_c,0,76,0
1,8554,Note_on_c,0,76,0
1,8571,Note_on_c,0,76,0
1,8607,Note_on_c,0,76,0
1,8622,Note_on_c,0,76,0
1,8811,Note_on_c,0,76,0
1,8875,Note_on_c,0,76,0
1,8945,Note_on_c,0,76,0
1,8968,Note_on_c,0,76,64
1,9007,Control_c,0,7,0
1,9045,Note_on_c,0,76,0
1,9064,Note_on_c,0,76,0
1,9096,Note_on_c,0,76,0
1,9123,Note_on_c,0,76,64
1,9128,Control_c,0,7,0
1,9157,Note_on_c,0,76,0
1,9194,Note_on_c,0,76,0
1,9204,Note_on_c,0,76,64
1,9352,Control_c,0,7,0
1,9400,Note_on_c,0,76,0
1,9400,Note_on_c,0,76,0
1,9407,Note_on_c,0,76,0
1,9409,Note_on_c,0,76,0
1,9485,Note_on_c,0,76,0
1,9488,Note_on_c,0,76,0
1,9564,Note_on_c,0,76,0
1,9589,Note_on_c,0,76,0
1,9608,Note_on_c,0,76,0
1,9652,Note_on_c,0,76,0
1,9661,Note_on_c,0,76,0
1,9701,Note_on_c,0,76,0
1,9723,Note_on_c,0,76,0
1,9724,Note_on_c,0,76,0
1,9866,Note_on_c,0,76,0
1,9871,Note_on_c,0,76,64
1,9921,Control_c,0,7,0
1,9928,Note_on_c,0,76,0
1,9953,Note_on_c,0,76,64
1,9969,Control_c,0,7,0
1,10000,Note_on_c,0,76,0
1,10034,Note_on_c,0,76,64
1,10116,Control_c,0,7,0
1,10141,Note_on_c,0,76,64
1,10222,Control_c,0,7,0
1,10248,Note_on_c,0,76,64
1,10255,Control_c,0,7,64
1,10267,Control_c,0,7,0
1,10278,Note_on_c,0,76,0
1,10311,Note_on_c,0,76,0
1,10330,Note_on_c,0,76,0
1,10368,Note_on_c,0,76,0
1,10389,Note_on_c,0,76,0
1,10421,Note_on_c,0,76,64
1,10427,Control_c,0,7,0
1,10481,Note_on_c,0,76,0
1,10489,Note_on_c,0,76,0
1,10502,Note_on_c,0,76,0
1,10562,Note_on_c,0,76,0
1,10578,Note_on_c,0,76,0
1,10617,Note_on_c,0,76,0
1,10663,Note_on_c,0,76,0
1,10689,Note_on_c,0,76,64
1,10724,Control_c,0,7,64
1,10731,Control_c,0,7,64
1,10743,Control_c,0,7,64
1,10758,Control_c,0,7,64
1,10766,Control_c,0,7,64
1,10772,Control_c,0,7,0
1,10813,Note_on_c,0,76,0
1,10825,Note_on_c,0,76,64
1,10848,Control_c,0,7,0
1,10909,Note_on_c,0,76,0
1,10932,Note_on_c,0,76,64
1,10944,Control_c,0,7,64
1,10950,Control_c,0,7,0
1,10975,Note_on_c,0,76,0
1,11039,Note_on_c,0,76,64
1,11056,Control_c,0,7,0
1,11094,Note_on_c,0,76,0
1,11158,Note_on_c,0,76,0
1,11186,Note_on_c,0,76,0
1,11215,Note_on_c,0,76,0
1,11221,Note_on_c,0,76,0
1,11225,Note_on_c,0,76,64
1,11266,Control_c,0,7,0
1,11300,Note_on_c,0,76,0
1,11303,Note_on_c,0,76,0
1,11327,Note_on_c,0,76,0
1,11335,Note_on_c,0,76,0
1,11343,Note_on_c,0,76,0
1,11345,Note_on_c,0,76,0
1,11417,Note_on_c,0,76,0
1,11456,Note_on_c,0,76,0
1,11475,Note_on_c,0,76,64
1,11478,Control_c,0,7,0
1,11505,Note_on_c,0,76,0
1,11505,Note_on_c,0,76,0
1,11536,Note_on_c,0,76,0
1,11536,Note_on_c,0,76,0
1,11541,Note_on_c,0,76,0
1,11542,Note_on_c,0,76,0
1,11545,Note_on_c,0,76,0
1,11550,Note_on_c,0,76,64
1,11553,Control_c,0,7,64
1,11574,Control_c,0,7,0
1,11575,Note_on_c,0,76,0
1,11594,Note_on_c,0,76,64
1,11609,Control_c,0,7,64
1,11625,Control_c,0,7,0
1,11629,Note_on_c,0,76,0
1,11641,Note_on_c,0,76,0
1,11656,Note_on_c,0,76,0
1,11706,Note_on_c,0,76,0
1,11751,Note_on_c,0,76,0
1,11776,Note_on_c,0,76,0
1,11813,Note_on_c,0,76,0
1,11819,Note_on_c,0,76,64
1,11857,Control_c,0,7,0
1,11857,Note_on_c,0,76,0
1,11857,Note_on_c,0,76,64
1,11882,Control_c,0,7,0
1,11922,Note_on_c,0,76,0
1,11983,Note_on_c,0,76,0
1,12055,Note_on_c,0,76,0
1,12080,Note_on_c,0,76,0
1,12119,Note_on_c,0,76,0
1,12177,Note_on_c,0,76,0
1,12201,Note_on_c,0,76,0
1,12225,Note_on_c,0,76,0
1,12226,Note_on_c,0,76,0
1,12241,Note_on_c,0,76,0
1,12287,Note_on_c,0,76,0
1,12292,Note_on_c,0,76,0
1,12307,Note_on_c,0,76,0
1,12360,Note_on_c,0,76,0
1,12382,Note_on_c,0,76,0
1,12404,Note_on_c,0,76,0
1,12446,Note_on_c,0,76,64
1,12506,Control_c,0,7,64
1,12512,Control_c,0,7,0
1,12541,Note_on_c,0,76,0
1,12545,Note_on_c,0,76,0
1,12583,Note_on_c,0,76,0
1,12588,Note_on_c,0,76,0
1,12597,Note_on_c,0,76,0
1,12685,Note_on_c,0,76,0
1,12733,Note_on_c,0,76,0
1,12769,Note_on_c,0,76,0
1,12786,Note_on_c,0,76,0
1,12809,Note_on_c,0,76,0
1,12836,Note_on_c,0,76,0
1,12842,Note_on_c,0,76,0
1,12855,Note_on_c,0,76,0
1,12906,Note_on_c,0,76,0
1,12926,Note_on_c,0,76,0
1,12939,Note_on_c,0,76,0
1,12966,Note_on_c,0,76,0
1,12988,Note_on_c,0,76,64
1,13012,Control_c,0,7,0
1,13097,Note_on_c,0,76,0
1,13132,Note_on_c,0,76,0
1,13142,Note_on_c,0,76,0
1,13144,Note_on_c,0,76,0
1,13147,Note_on_c,0,76,0
1,13163,Note_on_c,0,76,0
1,13173,Note_on_c,0,76,0
1,13195,Note_on_c,0,76,0
1,13212,Note_on_c,0,76,0
1,13299,Note_on_c,0,76,0
1,13329,Note_on_c,0,76,0
1,13346,Note_on_c,0,76,0
1,13349,Note_on_c,0,76,0
1,13429,Note_on_c,0,76,0
1,13439,Note_on_c,0,76,0
1,13459,Note_on_c,0,76,0
1,13485,Note_on_c,0,76,0
1,13486,Note_on_c,0,76,64
1,13531,Control_c,0,7,0
1,13534,Note_on_c,0,76,0
1,13608,Note_on_c,0,76,64
1,13616,Control_c,0,7,0
1,13665,Note_on_c,0,76,64
1,13684,Control_c,0,7,64
1,13731,Control_c,0,7,64
1,13742,Control_c,0,7,0
1,13809,Note_on_c,0,76,0
1,13849,Note_on_c,0,76,0
1,13898,Note_on_c,0,76,0
1,13899,Note_on_c,0,76,64
1,13960,Control_c,0,7,0
1,13964,Note_on_c,0,76,64
1,14023,Control_c,0,7,0
1,14050,Note_on_c,0,76,0
1,14060,Note_on_c,0,76,0
1,14069,Note_on_c,0,76,0
1,14135,Note_on_c,0,76,64
1,14197,Control_c,0,7,0
1,14203,Note_on_c,0,76,0
1,14204,Note_on_c,0,76,0
1,14247,Note_on_c,0,76,64
1,14251,Control_c,0,7,0
1,14252,Note_on_c,0,76,0
1,14269,Note_on_c,0,76,64
1,14280,Control_c,0,7,0
1,14398,Note_on_c,0,76,0
1,14411,Note_on_c,0,76,0
1,14433,Note_on_c,0,76,0
1,14444,Note_on_c,0,76,64
1,14490,Control_c,0,7,0
1,14531,Note_on_c,0,76,64
1,14560,Control_c,0,7,0
1,14570,Note_on_c,0,76,64
1,14577,Control_c,0,7,0
1,14594,Note_on_c,0,76,0
1,14674,Note_on_c,0,76,0
1,14676,Note_on_c,0,76,0
1,14710,Note_on_c,0,76,0
1,14716,Note_on_c,0,76,64
1,14755,Control_c,0,7,64
1,14776,Control_c,0,7,64
1,14842,Control_c,0,7,0
1,14881,Note_on_c,0,76,0
1,14892,Note_on_c,0,76,0
1,14923,Note_on_c,0,76,0
1,14935,Note_on_c,0,76,0
1,14941,Note_on_c,0,76,0
1,14956,Note_on_c,0,76,0
1,14994,Note_on_c,0,76,0
1,14997,Note_on_c,0,76,0
1,15004,Note_on_c,0,76,0
1,15038,Note_on_c,0,76,64
1,15039,Control_c,0,7,64
1,15072,Control_c,0,7,0
1,15140,Note_on_c,0,76,0
1,15246,Note_on_c,0,76,64
1,15344,Control_c,0,7,0
1,15377,Note_on_c,0,76,0
1,15379,Note_on_c,0,76,0
1,15441,Note_on_c,0,76,64
1,15491,Control_c,0,7,0
1,15526,Note_on_c,0,76,0
1,15618,Note_on_c,0,76,0
1,15628,Note_on_c,0,76,0
1,15695,Note_on_c,0,76,64
1,15697,Control_c,0,7,0
1,15714,Note_on_c,0,76,0
1,15747,Note_on_c,0,76,64
1,15765,Control_c,0,7,0
1,15784,Note_on_c,0,76,0
1,15790,Note_on_c,0,76,0
1,15813,Note_on_c,0,76,0
1,15818,Note_on_c,0,76,64
1,16030,Control_c,0,7,0
1,16094,Note_on_c,0,76,0
1,16133,Note_on_c,0,76,0
1,16165,Note_on_c,0,76,64
1,16244,Control_c,0,7,0
1,16245,Note_on_c,0,76,0
1,16253,Note_on_c,0,76,0
1,16264,Note_on_c,0,76,64
1,16312,Control_c,0,7,0
1,16429,Note_on_c,0,76,0
1,16439,Note_on_c,0,76,0
1,16452,Note_on_c,0,76,0
1,16459,Note_on_c,0,76,64
1,16485,Control_c,0,7,0
1,16527,Note_on_c,0,76,64
1,16536,Control_c,0,7,64
1,16536,Control_c,0,7,0
1,16569,Note_on_c,0,76,64
1,16570,Control_c,0,7,64
1,16572,Control_c,0,7,0
1,16585,Note_on_c,0,76,0
1,16646,Note_on_c,0,76,64
1,16831,Control_c,0,7,0
1,16847,Note_on_c,0,76,64
1,16855,Control_c,0,7,0
1,16866,Note_on_c,0,76,0
1,16877,Note_on_c,0,76,0
1,16879,Note_on_c,0,76,0
1,16945,Note_on_c,0,76,0
1,16982,Note_on_c,0,76,0
1,16983,Note_on_c,0,76,64
1,17012,Control_c,0,7,0
1,17012,Note_on_c,0,76,0
1,17033,Note_on_c,0,76,0
1,17047,Note_on_c,0,76,64
1,17051,Control_c,0,7,0
1,17059,Note_on_c,0,76,0
1,17265,Note_on_c,0,76,0
1,17272,Note_on_c,0,76,0
1,17316,Note_on_c,0,76,0
1,17319,Note_on_c,0,76,0
1,17343,Note_on_c,0,76,0
1,17384,Note_on_c,0,76,0
1,17440,Note_on_c,0,76,0
1,17490,Note_on_c,0,76,0
1,17520,Note_on_c,0,76,0
1,17593,Note_on_c,0,76,0
1,17613,Note_on_c,0,76,0
1,17613,Note_on_c,0,76,0
1,17686,Note_on_c,0,76,64
1,17689,Control_c,0,7,0
1,17710,Note_on_c,0,76,0
1,17711,Note_on_c,0,76,64
1,17721,Control_c,0,7,64
1,17725,Control_c,0,7,64
1,17727,Control_c,0,7,0
1,17743,Note_on_c,0,76,0
1,17800,Note_on_c,0,76,0
1,17805,Note_on_c,0,76,0
1,17817,Note_on_c,0,76,0
1,17820,Note_on_c,0,76,0
1,17889,Note_on_c,0,76,0
1,17902,Note_on_c,0,76,0
1,17904,Note_on_c,0,76,0
1,17932,Note_on_c,0,76,0
1,17958,Note_on_c,0,76,64
1,17964,Control_c,0,7,0
1,18003,Note_on_c,0,76,64
1,18036,Control_c,0,7,0
1,18048,Note_on_c,0,76,0
1,18052,Note_on_c,0,76,64
1,18177,Control_c,0,7,64
1,18183,Control_c,0,7,64
1,18206,Control_c,0,7,64
1,18268,Control_c,0,7,0
1,18290,Note_on_c,0,76,0
1,18295,Note_on_c,0,76,0
1,18298,Note_on_c,0,76,0
1,18329,Note_on_c,0,76,0
1,18404,Note_on_c,0,76,0
1,18456,Note_on_c,0,76,0
1,18482,Note_on_c,0,76,0
1,18507,Note_on_c,0,76,0
1,18521,Note_on_c,0,76,0
1,18528,Note_on_c,0,76,0
1,18542,Note_on_c,0,76,0
1,18569,Note_on_c,0,76,0
1,18608,Note_on_c,0,76,64
1,18614,Control_c,0,7,0
1,18653,Note_on_c,0,76,0
1,18659,Note_on_c,0,76,64
1,18673,Control_c,0,7,64
1,18717,Control_c,0,7,0
1,18756,Note_on_c,0,76,0
1,18802,Note_on_c,0,76,0
1,18823,Note_on_c,0,76,64
1,18855,Control_c,0,7,0
1,18871,Note_on_c,0,76,0
1,18930,Note_on_c,0,76,0
1,18954,Note_on_c,0,76,0
1,18980,Note_on_c,0,76,0
1,18997,Note_on_c,0,76,0
1,19058,Note_on_c,0,76,0
1,19130,Note_on_c,0,76,0
1,19227,Note_on_c,0,76,0
1,19261,Note_on_c,0,76,0
1,19263,Note_on_c,0,76,0
1,19301,Note_on_c,0,76,0
1,19311,Note_on_c,0,76,0
1,19326,Note_on_c,0,76,0
1,19349,Note_on_c,0,76,0
1,19388,Note_on_c,0,76,64
1,19403,Control_c,0,7,0
1,19410,Note_on_c,0,76,64
1,19412,Control_c,0,7,64
1,19479,Control_c,0,7,64
1,19483,Control_c,0,7,0
1,19521,Note_on_c,0,76,0
1,19525,Note_on_c,0,76,0
1,19584,Note_on_c,0,76,0
1,19609,Note_on_c,0,76,0
1,19639,Note_on_c,0,76,0
1,19650,Note_on_c,0,76,0
1,19651,Note_on_c,0,76,0
1,19655,Note_on_c,0,76,0
1,19761,Note_on_c,0,76,0
1,19820,Note_on_c,0,76,0
1,19826,Note_on_c,0,76,0
1,20047,Note_on_c,0,76,0
1,20072,Note_on_c,0,76,0
1,20074,Note_on_c,0,76,0
1,20158,Note_on_c,0,76,0
1,20193,Note_on_c,0,76,0
1,20226,Note_on_c,0,76,64
1,20286,Control_c,0,7,0
1,20319,Note_on_c,0,76,0
1,20338,Note_on_c,0,76,0
1,20341,Note_on_c,0,76,0
1,20406,Note_on_c,0,76,0
1,20445,Note_on_c,0,76,0
1,20455,Note_on_c,0,76,0
1,20476,Note_on_c,0,76,0
1,20478,Note_on_c,0,76,0
1,20510,Note_on_c,0,76,0
1,20559,Note_on_c,0,76,64
1,20564,Control_c,0,7,0
1,20592,Note_on_c,0,76,0
1,20639,Note_on_c,0,76,0
1,20682,Note_on_c,0,76,0
1,20705,Note_on_c,0,76,0
1,20714,Note_on_c,0,76,0
1,20725,Note_on_c,0,76,0
1,20760,Note_on_c,0,76,0
1,20781,Note_on_c,0,76,0
1,20787,Note_on_c,0,76,0
1,20839,Note_on_c,0,76,0
1,20852,Note_on_c,0,76,0
1,20866,Note_on_c,0,76,0
1,20869,Note_on_c,0,76,0
1,20895,Note_on_c,0,76,0
1,20932,Note_on_c,0,76,64
1,20952,Control_c,0,7,64
1,20960,Control_c,0,7,0
1,20966,Note_on_c,0,76,0
1,20967,Note_on_c,0,76,0
1,21009,Note_on_c,0,76,0
1,21022,Note_on_c,0,76,0
1,21031,Note_on_c,0,76,0
1,21052,Note_on_c,0,76,0
1,21061,Note_on_c,0,76,0
1,21200,Note_on_c,0,76,0
1,21225,Note_on_c,0,76,0
1,21237,Note_on_c,0,76,0
1,21264,Note_on_c,0,76,64
1,21342,Control_c,0,7,0
1,21383,Note_on_c,0,76,64
1,21439,Control_c,0,7,64
1,21447,Control_c,0,7,0
1,21539,Note_on_c,0,76,0
1,21546,Note_on_c,0,76,0
1,21549,Note_on_c,0,76,0
1,21590,Note_on_c,0,76,64
1,21623,Control_c,0,7,0
1,21709,Note_on_c,0,76,0
1,21717,Note_on_c,0,76,0
1,21783,Note_on_c,0,76,0
1,21861,Note_on_c,0,76,64
1,21884,Control_c,0,7,0
1,21898,Note_on_c,0,76,0
1,21912,Note_on_c,0,76,0
1,21925,Note_on_c,0,76,0
1,21927,Note_on_c,0,76,0
1,21934,Note_on_c,0,76,0
1,21988,Note_on_c,0,76,0
1,22025,Note_on_c,0,76,0
1,22044,Note_on_c,0,76,64
1,22076,Control_c,0,7,64
1,22087,Control_c,0,7,0
1,22096,Note_on_c,0,76,0
1,22108,Note_on_c,0,76,64
1,22165,Control_c,0,7,0
1,22175,Note_on_c,0,76,0
1,22237,Note_on_c,0,76,0
1,22339,Note_on_c,0,76,0
1,22349,Note_on_c,0,76,0
1,22349,Note_on_c,0,76,0
1,22409,Note_on_c,0,76,0
1,22428,Note_on_c,0,76,0
1,22458,Note_on_c,0,76,64
1,22522,Control_c,0,7,0
1,22537,Note_on_c,0,76,0
1,22581,Note_on_c,0,76,64
1,22614,Control_c,0,7,64
1,22622,Control_c,0,7,0
1,22636,Note_on_c,0,76,0
1,22680,Note_on_c,0,76,0
1,22721,Note_on_c,0,76,0
1,22724,Note_on_c,0,76,0
1,22741,Note_on_c,0,76,0
1,22855,Note_on_c,0,76,0
1,22900,Note_on_c,0,76,64
1,22905,Control_c,0,7,0
1,22953,Note_on_c,0,76,0
1,23033,Note_on_c,0,76,0
1,23061,Note_on_c,0,76,64
1,23073,Control_c,0,7,64
1,23107,Control_c,0,7,64
1,23114,Control_c,0,7,64
1,23125,Control_c,0,7,0
1,23142,Note_on_c,0,76,0
1,23145,Note_on_c,0,76,0
1,23217,Note_on_c,0,76,0
1,23237,Note_on_c,0,76,0
1,23255,Note_on_c,0,76,0
1,23379,Note_on_c,0,76,64
1,23393,Control_c,0,7,0
1,23403,Note_on_c,0,76,0
1,23457,Note_on_c,0,76,0
1,23500,Note_on_c,0,76,0
1,23524,Note_on_c,0,76,0
1,23575,Note_on_c,0,76,64
1,23600,Control_c,0,7,64
1,23602,Control_c,0,7,0
1,23660,Note_on_c,0,76,0
1,23718,Note_on_c,0,76,64
1,23727,Control_c,0,7,0
1,23732,Note_on_c,0,76,0
1,23746,Note_on_c,0,76,0
1,23775,Note_on_c,0,76,0
1,23790,Note_on_c,0,76,0
1,23811,Note_on_c,0,76,0
1,23904,Note_on_c,0,76,0
1,23911,Note_on_c,0,76,64
1,23930,Control_c,0,7,0
1,23960,Note_on_c,0,69,0
1,23984,Note_on_c,0,69,64
1,24040,Control_c,0,7,0
1,24074,Note_on_c,0,69,0
1,24080,Note_on_c,0,69,64
1,24086,Control_c,0,7,0
1,24092,Note_on_c,0,69,64
1,24102,Control_c,0,7,0
1,24162,Note_on_c,0,69,0
1,24205,Note_on_c,0,69,64
1,24208,Control_c,0,7,64
1,24218,Control_c,0,7,0
1,24221,Note_on_c,0,69,0
1,24278,Note_on_c,0,69,64
1,24388,Control_c,0,7,0
1,24398,Note_on_c,0,69,0
1,24441,Note_on_c,0,69,0
1,24476,Note_on_c,0,69,0
1,24502,Note_on_c,0,69,0
1,24583,Note_on_c,0,69,64
1,24595,Control_c,0,7,0
1,24597,Note_on_c,0,69,0
1,24630,Note_on_c,0,69,0
1,24634,Note_on_c,0,69,64
1,24655,Control_c,0,7,64
1,24658,Control_c,0,7,0
1,24658,Note_on_c,0,69,0
1,24706,Note_on_c,0,69,0
1,24714,Note_on_c,0,69,0
1,24725,Note_on_c,0,69,0
1,24757,Note_on_c,0,69,64
1,24758,Control_c,0,7,0
1,24785,Note_on_c,0,69,0
1,24788,Note_on_c,0,69,0
1,24858,Note_on_c,0,69,64
1,24898,Control_c,0,7,0
1,24916,Note_on_c,0,69,0
1,24918,Note_on_c,0,69,0
1,24919,Note_on_c,0,69,0
1,24936,Note_on_c,0,69,64
1,24937,Control_c,0,7,0
1,24959,Note_on_c,0,69,0
1,24974,Note_on_c,0,69,0
1,25066,Note_on_c,0,69,64
1,25080,Control_c,0,7,0
1,25131,Note_on_c,0,69,0
1,25152,Note_on_c,0,69,64
1,25231,Control_c,0,7,0
1,25251,Note_on_c,0,69,0
1,25291,Note_on_c,0,69,0
1,25310,Note_on_c,0,69,0
1,25338,Note_on_c,0,69,0
1,25378,Note_on_c,0,69,0
1,25446,Note_on_c,0,69,0
1,25495,Note_on_c,0,69,0
1,25512,Note_on_c,0,69,0
1,25575,Note_on_c,0,69,64
1,25726,Control_c,0,7,0
1,25744,Note_on_c,0,69,0
1,25755,Note_on_c,0,69,0
1,25785,Note_on_c,0,69,0
1,25787,Note_on_c,0,69,64
1,25797,Control_c,0,7,64
1,25803,Control_c,0,7,0
1,25810,Note_on_c,0,69,0
1,25811,Note_on_c,0,69,0
1,25814,Note_on_c,0,69,0
1,25840,Note_on_c,0,69,0
1,25850,Note_on_c,0,69,64
1,25863,Control_c,0,7,0
1,25938,Note_on_c,0,69,64
1,26018,Control_c,0,7,64
1,26021,Control_c,0,7,64
1,26055,Control_c,0,7,0
1,26075,Note_on_c,0,69,0
1,26134,Note_on_c,0,69,64
1,26162,Control_c,0,7,0
1,26162,Note_on_c,0,69,0
1,26202,Note_on_c,0,69,64
1,26248,Control_c,0,7,0
1,26451,Note_on_c,0,69,0
1,26557,Note_on_c,0,69,0
1,26606,Note_on_c,0,69,64
1,26615,Control_c,0,7,0
1,26628,Note_on_c,0,69,0
1,26639,Note_on_c,0,69,0
1,26640,Note_on_c,0,69,0
1,26661,Note_on_c,0,69,0
1,26662,Note_on_c,0,69,0
1,26686,Note_on_c,0,69,0
1,26717,Note_on_c,0,69,0
1,26725,Note_on_c,0,69,64
1,26786,Control_c,0,7,0
1,26848,Note_on_c,0,69,0
1,26857,Note_on_c,0,69,64
1,26874,Control_c,0,7,0
1,26950,Note_on_c,0,69,64
1,26977,Control_c,0,7,0
1,26987,Note_on_c,0,69,0
1,27057,Note_on_c,0,69,64
1,27101,Control_c,0,7,64
1,27156,Control_c,0,7,0
1,27179,Note_on_c,0,69,0
1,27188,Note_on_c,0,69,0
1,27217,Note_on_c,0,69,0
1,27234,Note_on_c,0,69,0
1,27285,Note_on_c,0,69,64
1,27382,Control_c,0,7,64
1,27394,Control_c,0,7,0
1,27399,Note_on_c,0,69,0
1,27448,Note_on_c,0,69,64
1,27561,Control_c,0,7,0
1,27571,Note_on_c,0,69,64
1,27584,Control_c,0,7,0
1,27607,Note_on_c,0,69,0
1,27619,Note_on_c,0,69,0
1,27702,Note_on_c,0,69,0
1,27756,Note_on_c,0,69,0
1,27767,Note_on_c,0,69,0
1,27778,Note_on_c,0,69,0
1,27811,Note_on_c,0,69,0
1,27914,Note_on_c,0,69,0
1,27934,Note_on_c,0,69,0
1,27944,Note_on_c,0,69,0
1,27953,Note_on_c,0,69,0
1,27998,Note_on_c,0,69,64
1,27999,Control_c,0,7,0
1,28001,Note_on_c,0,69,0
1,28019,Note_on_c,0,69,64
1,28114,Control_c,0,7,0
1,28138,Note_on_c,0,69,0
1,28146,Note_on_c,0,69,64
1,28155,Control_c,0,7,0
1,28188,Note_on_c,0,69,64
1,28207,Control_c,0,7,0
1,28278,Note_on_c,0,69,0
1,28310,Note_on_c,0,69,0
1,28422,Note_on_c,0,69,0
1,28434,Note_on_c,0,69,0
1,28437,Note_on_c,0,69,0
1,28475,Note_on_c,0,69,0
1,28511,Note_on_c,0,69,0
1,28589,Note_on_c,0,69,0
1,28590,Note_on_c,0,69,0
1,28598,Note_on_c,0,69,64
1,28612,Control_c,0,7,0
1,28616,Note_on_c,0,69,0
1,28656,Note_on_c,0,69,64
1,28664,Control_c,0,7,0
1,28713,Note_on_c,0,69,64
1,28735,Control_c,0,7,0
1,28801,Note_on_c,0,69,0
1,28811,Note_on_c,0,69,0
1,28866,Note_on_c,0,69,0
1,28876,Note_on_c,0,69,0
1,28976,Note_on_c,0,69,0
1,29019,Note_on_c,0,69,0
1,29032,Note_on_c,0,69,0
1,29033,Note_on_c,0,69,0
1,29072,Note_on_c,0,69,0
1,29111,Note_on_c,0,69,0
1,29116,Note_on_c,0,69,0
1,29235,Note_on_c,0,69,0
1,29256,Note_on_c,0,69,0
1,29344,Note_on_c,0,69,64
1,29359,Control_c,0,7,0
1,29375,Note_on_c,0,69,0
1,29394,Note_on_c,0,69,0
1,29396,Note_on_c,0,69,0
1,29419,Note_on_c,0,69,64
1,29486,Control_c,0,7,0
1,29494,Note_on_c,0,69,64
1,29538,Control_c,0,7,0
1,29545,Note_on_c,0,69,0
1,29575,Note_on_c,0,69,0
1,29582,Note_on_c,0,69,0
1,29582,Note_on_c,0,69,0
1,29593,Note_on_c,0,69,0
1,29605,Note_on_c,0,69,0
1,29610,Note_on_c,0,69,64
1,29662,Control_c,0,7,0
1,29671,Note_on_c,0,69,0
1,29706,Note_on_c,0,69,0
1,29845,Note_on_c,0,69,0
1,29859,Note_on_c,0,69,0
1,29861,Note_on_c,0,69,0
1,29890,Note_on_c,0,69,64
1,29910,Control_c,0,7,0
1,29961,Note_on_c,0,69,64
1,30004,Control_c,0,7,0
1,30035,Note_on_c,0,69,0
1,30108,Note_on_c,0,69,0
1,30145,Note_on_c,0,69,0
1,30159,Note_on_c,0,69,0
1,30193,Note_on_c,0,69,0
1,30194,Note_on_c,0,69,64
1,30232,Control_c,0,7,0
1,30294,Note_on_c,0,69,0
1,30335,Note_on_c,0,69,0
1,30337,Note_on_c,0,69,0
1,30355,Note_on_c,0,69,0
1,30373,Note_on_c,0,69,64
1,30376,Control_c,0,7,0
1,30457,Note_on_c,0,69,0
1,30545,Note_on_c,0,69,0
1,30576,Note_on_c,0,69,0
1,30661,Note_on_c,0,69,0
1,30718,Note_on_c,0,69,64
1,30730,Control_c,0,7,0
1,30830,Note_on_c,0,69,64
1,30857,Control_c,0,7,64
1,30970,Control_c,0,7,64
1,31000,Control_c,0,7,64
1,31005,Control_c,0,7,0
1,31013,Note_on_c,0,69,0
1,31056,Note_on_c,0,69,0
1,31056,Note_on_c,0,69,64
1,31127,Control_c,0,7,0
1,31133,Note_on_c,0,69,64
1,31193,Control_c,0,7,0
1,31206,Note_on_c,0,69,0
1,31220,Note_on_c,0,69,64
1,31297,Control_c,0,7,64
1,31354,Control_c,0,7,0
1,31401,Note_on_c,0,69,64
1,31435,Control_c,0,7,0
1,31455,Note_on_c,0,69,0
1,31498,Note_on_c,0,69,0
1,31518,Note_on_c,0,69,0
1,31529,Note_on_c,0,69,0
1,31566,Note_on_c,0,69,64
1,31588,Control_c,0,7,64
1,31606,Control_c,0,7,0
1,31644,Note_on_c,0,69,0
1,31655,Note_on_c,0,69,0
1,31675,Note_on_c,0,69,0
1,31698,Note_on_c,0,69,0
1,31703,Note_on_c,0,69,64
1,31713,Control_c,0,7,0
1,31719,Note_on_c,0,69,0
1,31770,Note_on_c,0,69,0
1,31802,Note_on_c,0,69,0
1,31853,Note_on_c,0,69,0
1,31902,Note_on_c,0,69,0
1,31927,Note_on_c,0,69,64
1,31928,Control_c,0,7,0
1,31928,Note_on_c,0,69,0
1,31997,Note_on_c,0,69,0
1,32000,Note_on_c,0,69,0
1,32040,Note_on_c,0,69,64
1,32052,Control_c,0,7,0
1,32121,Note_on_c,0,69,0
1,32140,Note_on_c,0,69,0
1,32145,Note_on_c,0,69,0
1,32158,Note_on_c,0,69,0
1,32193,Note_on_c,0,69,64
1,32196,Control_c,0,7,0
1,32208,Note_on_c,0,69,64
1,32212,Control_c,0,7,0
1,32215,Note_on_c,0,69,64
1,32292,Control_c,0,7,0
1,32296,Note_on_c,0,69,0
1,32296,Note_on_c,0,69,0
1,32325,Note_on_c,0,69,0
1,32351,Note_on_c,0,69,0
1,32500,Note_on_c,0,69,0
1,32507,Note_on_c,0,69,64
1,32511,Control_c,0,7,64
1,32628,Control_c,0,7,0
1,32644,Note_on_c,0,69,0
1,32696,Note_on_c,0,69,64
1,32707,Control_c,0,7,0
1,32717,Note_on_c,0,69,0
1,32730,Note_on_c,0,69,0
1,32751,Note_on_c,0,69,64
1,32759,Control_c,0,7,0
1,32835,Note_on_c,0,69,64
1,32904,Control_c,0,7,64
1,32905,Control_c,0,7,0
1,33010,Note_on_c,0,69,0
1,33015,Note_on_c,0,69,64
1,33034,Control_c,0,7,64
1,33060,Control_c,0,7,0
1,33089,Note_on_c,0,69,64
1,33095,Control_c,0,7,0
1,33188,Note_on_c,0,69,0
1,33235,Note_on_c,0,69,64
1,33286,Control_c,0,7,0
1,33315,Note_on_c,0,69,0
1,33343,Note_on_c,0,69,0
1,33352,Note_on_c,0,69,64
1,33391,Control_c,0,7,0
1,33451,Note_on_c,0,69,64
1,33532,Control_c,0,7,0
1,33544,Note_on_c,0,69,0
1,33549,Note_on_c,0,69,0
1,33671,Note_on_c,0,69,0
1,33679,Note_on_c,0,69,64
1,33705,Control_c,0,7,0
1,33751,Note_on_c,0,69,0
1,33759,Note_on_c,0,69,0
1,33854,Note_on_c,0,69,0
1,33997,Note_on_c,0,69,0
1,34027,Note_on_c,0,69,0
1,34055,Note_on_c,0,69,0
1,34062,Note_on_c,0,69,0
1,34095,Note_on_c,0,69,0
1,34104,Note_on_c,0,69,0
1,34131,Note_on_c,0,69,0
1,34144,Note_on_c,0,69,64
1,34191,Control_c,0,7,0
1,34237,Note_on_c,0,69,0
1,34307,Note_on_c,0,69,0
1,34386,Note_on_c,0,69,0
1,34442,Note_on_c,0,69,0
1,34442,Note_on_c,0,69,0
1,34454,Note_on_c,0,69,0
1,34513,Note_on_c,0,69,0
1,34539,Note_on_c,0,69,64
1,34562,Control_c,0,7,0
1,34569,Note_on_c,0,69,64
1,34613,Control_c,0,7,0
1,34616,Note_on_c,0,69,0
1,34663,Note_on_c,0,69,0
1,34677,Note_on_c,0,69,0
1,34735,Note_on_c,0,69,0
1,34773,Note_on_c,0,69,0
1,34821,Note_on_c,0,69,0
1,34900,Note_on_c,0,69,0
1,34937,Note_on_c,0,69,0
1,34938,Note_on_c,0,69,0
1,34943,Note_on_c,0,69,0
1,34959,Note_on_c,0,69,0
1,34974,Note_on_c,0,69,64
1,34977,Control_c,0,7,64
1,35028,Control_c,0,7,64
1,35037,Control_c,0,7,0
1,35051,Note_on_c,0,69,64
1,35056,Control_c,0,7,0
1,35071,Note_on_c,0,69,0
1,35077,Note_on_c,0,69,0
1,35093,Note_on_c,0,69,0
1,35107,Note_on_c,0,69,0
1,35146,Note_on_c,0,69,0
1,35261,Note_on_c,0,69,0
1,35335,Note_on_c,0,69,0
1,35357,Note_on_c,0,69,0
1,35367,Note_on_c,0,69,0
1,35369,Note_on_c,0,69,0
1,35408,Note_on_c,0,69,0
1,35423,Note_on_c,0,69,0
1,35446,Note_on_c,0,69,64
1,35465,Control_c,0,7,0
1,35481,Note_on_c,0,69,0
1,35491,Note_on_c,0,69,64
1,35553,Control_c,0,7,64
1,35554,Control_c,0,7,0
1,35557,Note_on_c,0,69,0
1,35654,Note_on_c,0,69,0
1,35760,Note_on_c,0,69,64
1,35770,Control_c,0,7,0
1,35800,Note_on_c,0,69,0
1,35884,Note_on_c,0,69,0
1,35901,Note_on_c,0,69,0
1,35906,Note_on_c,0,69,0
1,35962,Note_on_c,0,69,64
1,35963,Control_c,0,7,0
1,35995,Note_on_c,0,69,0
1,36018,Note_on_c,0,69,64
1,36090,Control_c,0,7,0
1,36127,Note_on_c,0,69,0
1,36142,Note_on_c,0,69,0
1,36152,Note_on_c,0,69,0
1,36184,Note_on_c,0,69,0
1,36195,Note_on_c,0,69,0
1,36196,Note_on_c,0,69,0
1,36229,Note_on_c,0,69,0
1,36234,Note_on_c,0,69,0
1,36255,Note_on_c,0,69,0
1,36264,Note_on_c,0,69,64
1,36279,Control_c,0,7,64
1,36288,Control_c,0,7,64
1,36345,Control_c,0,7,0
1,36352,Note_on_c,0,69,0
1,36448,Note_on_c,0,69,64
1,36508,Control_c,0,7,0
1,36520,Note_on_c,0,69,0
1,36529,Note_on_c,0,69,0
1,36560,Note_on_c,0,69,0
1,36561,Note_on_c,0,69,64
1,36579,Control_c,0,7,0
1,36591,Note_on_c,0,69,0
1,36593,Note_on_c,0,69,0
1,36690,Note_on_c,0,69,64
1,36693,Control_c,0,7,0
1,36746,Note_on_c,0,69,64
1,36777,Control_c,0,7,0
1,36788,Note_on_c,0,69,0
1,36904,Note_on_c,0,69,64
1,36946,Control_c,0,7,0
1,36974,Note_on_c,0,69,0
1,37004,Note_on_c,0,69,0
1,37084,Note_on_c,0,69,64
1,37091,Control_c,0,7,0
1,37146,Note_on_c,0,69,0
1,37207,Note_on_c,0,69,0
1,37322,Note_on_c,0,69,0
1,37324,Note_on_c,0,69,0
1,37365,Note_on_c,0,69,0
1,37399,Note_on_c,0,69,0
1,37420,Note_on_c,0,69,0
1,37445,Note_on_c,0,69,0
1,37454,Note_on_c,0,69,0
1,37457,Note_on_c,0,69,64
1,37537,Control_c,0,7,0
1,37541,Note_on_c,0,69,0
1,37547,Note_on_c,0,69,0
1,37550,Note_on_c,0,69,0
1,37575,Note_on_c,0,69,0
1,37583,Note_on_c,0,69,0
1,37636,Note_on_c,0,69,64
1,37638,Control_c,0,7,0
1,37656,Note_on_c,0,69,0
1,37689,Note_on_c,0,69,0
1,37702,Note_on_c,0,69,0
1,37751,Note_on_c,0,69,0
1,37757,Note_on_c,0,69,0
1,37797,Note_on_c,0,69,0
1,37836,Note_on_c,0,69,0
1,37854,Note_on_c,0,69,0
1,37887,Note_on_c,0,69,0
1,37901,Note_on_c,0,69,64
1,37907,Control_c,0,7,64
1,37983,Control_c,0,7,64
1,37986,Control_c,0,7,0
1,38064,Note_on_c,0,69,64
1,38068,Control_c,0,7,0
1,38127,Note_on_c,0,69,64
1,38188,Control_c,0,7,64
1,38217,Control_c,0,7,0
1,38229,Note_on_c,0,69,0
1,38269,Note_on_c,0,69,0
1,38293,Note_on_c,0,69,0
1,38325,Note_on_c,0,69,0
1,38361,Note_on_c,0,69,0
1,38368,Note_on_c,0,69,0
1,38463,Note_on_c,0,69,0
1,38499,Note_on_c,0,69,0
1,38552,Note_on_c,0,69,0
1,38578,Note_on_c,0,69,64
1,38627,Control_c,0,7,0
1,38691,Note_on_c,0,69,0
1,38748,Note_on_c,0,69,0
1,38755,Note_on_c,0,69,0
1,38756,Note_on_c,0,69,0
1,38788,Note_on_c,0,69,0
1,38806,Note_on_c,0,69,0
1,38895,Note_on_c,0,69,0
1,38920,Note_on_c,0,69,0
1,38930,Note_on_c,0,69,0
1,38937,Note_on_c,0,69,0
1,38956,Note_on_c,0,69,0
1,38957,Note_on_c,0,69,0
1,38963,Note_on_c,0,69,0
1,39065,Note_on_c,0,69,64
1,39083,Control_c,0,7,64
1,39109,Control_c,0,7,0
1,39156,Note_on_c,0,69,0
1,39197,Note_on_c,0,69,0
1,39223,Note_on_c,0,69,0
1,39269,Note_on_c,0,69,64
1,39390,Control_c,0,7,0
1,39395,Note_on_c,0,69,0
1,39405,Note_on_c,0,69,64
1,39446,Control_c,0,7,0
1,39484,Note_on_c,0,69,0
1,39488,Note_on_c,0,69,0
1,39502,Note_on_c,0,69,0
1,39503,Note_on_c,0,69,0
1,39517,Note_on_c,0,69,0
1,39549,Note_on_c,0,69,64
1,39585,Control_c,0,7,0
1,39614,Note_on_c,0,69,0
1,39638,Note_on_c,0,69,0
1,39643,Note_on_c,0,69,0
1,39654,Note_on_c,0,69,0
1,39667,Note_on_c,0,69,0
1,39710,Note_on_c,0,69,0
1,39729,Note_on_c,0,69,0
1,39756,Note_on_c,0,69,0
1,39785,Note_on_c,0,69,64
1,39814,Control_c,0,7,0
1,39842,Note_on_c,0,69,0
1,39870,Note_on_c,0,69,0
1,39880,Note_on_c,0,69,0
1,39896,Note_on_c,0,69,0
1,39898,Note_on_c,0,69,0
1,39924,Note_on_c,0,69,0
1,39933,Note_on_c,0,69,0
1,39949,Note_on_c,0,69,0
1,39980,Note_on_c,0,69,0
1,39981,Note_on_c,0,69,0
1,40007,Note_on_c,0,69,0
1,40034,Note_on_c,0,69,0
1,40054,Note_on_c,0,69,0
1,40061,Note_on_c,0,69,0
1,40083,Note_on_c,0,69,0
1,40116,Note_on_c,0,69,64
1,40128,Control_c,0,7,0
1,40152,Note_on_c,0,69,0
1,40154,Note_on_c,0,69,0
1,40184,Note_on_c,0,69,0
1,40194,Note_on_c,0,69,0
1,40278,Note_on_c,0,69,0
1,40330,Note_on_c,0,69,0
1,40331,Note_on_c,0,69,64
1,40407,Control_c,0,7,0
1,40468,Note_on_c,0,69,0
1,40516,Note_on_c,0,69,0
1,40518,Note_on_c,0,69,64
1,40527,Control_c,0,7,0
1,40538,Note_on_c,0,69,0
1,40554,Note_on_c,0,69,0
1,40556,Note_on_c,0,69,0
1,40571,Note_on_c,0,69,0
1,40572,Note_on_c,0,69,0
1,40575,Note_on_c,0,69,0
1,40577,Note_on_c,0,69,0
1,40607,Note_on_c,0,69,0
1,40628,Note_on_c,0,69,0
1,40705,Note_on_c,0,69,0
1,40730,Note_on_c,0,69,0
1,40779,Note_on_c,0,69,0
1,40822,Note_on_c,0,69,0
1,40839,Note_on_c,0,69,0
1,40913,Note_on_c,0,69,0
1,40940,Note_on_c,0,69,0
1,41003,Note_on_c,0,69,0
1,41049,Note_on_c,0,69,0
1,41118,Note_on_c,0,69,0
1,41243,Note_on_c,0,69,0
1,41313,Note_on_c,0,69,64
1,41370,Control_c,0,7,0
1,41445,Note_on_c,0,69,0
1,41524,Note_on_c,0,69,0
1,41540,Note_on_c,0,69,0
1,41548,Note_on_c,0,69,0
1,41561,Note_on_c,0,69,0
1,41569,Note_on_c,0,69,0
1,41569,Note_on_c,0,69,0
1,41610,Note_on_c,0,69,0
1,41612,Note_on_c,0,69,0
1,41624,Note_on_c,0,69,0
1,41635,Note_on_c,0,69,0
1,41686,Note_on_c,0,69,0
1,41717,Note_on_c,0,69,0
1,41753,Note_on_c,0,69,0
1,41759,Note_on_c,0,69,64
1,41787,Control_c,0,7,0
1,41852,Note_on_c,0,69,0
1,41905,Note_on_c,0,69,0
1,41927,Note_on_c,0,69,0
1,41955,Note_on_c,0,69,0
1,41974,Note_on_c,0,69,0
1,42064,Note_on_c,0,69,0
1,42068,Note_on_c,0,69,0
1,42083,Note_on_c,0,69,0
1,42091,Note_on_c,0,69,0
1,42101,Note_on_c,0,69,0
1,42132,Note_on_c,0,69,64
1,42139,Control_c,0,7,0
1,42161,Note_on_c,0,69,0
1,42166,Note_on_c,0,69,0
1,42240,Note_on_c,0,69,0
1,42246,Note_on_c,0,69,64
1,42260,Control_c,0,7,0
1,42271,Note_on_c,0,69,0
1,42276,Note_on_c,0,69,0
1,42304,Note_on_c,0,69,0
1,42373,Note_on_c,0,69,64
1,42391,Control_c,0,7,64
1,42406,Control_c,0,7,0
1,42426,Note_on_c,0,69,64
1,42486,Control_c,0,7,0
1,42515,Note_on_c,0,69,0
1,42628,Note_on_c,0,69,0
1,42635,Note_on_c,0,69,0
1,42697,Note_on_c,0,69,0
1,42740,Note_on_c,0,69,0
1,42740,Note_on_c,0,69,0
1,42763,Note_on_c,0,69,0
1,42828,Note_on_c,0,69,64
1,42873,Control_c,0,7,0
1,42878,Note_on_c,0,69,0
1,42916,Note_on_c,0,69,64
1,42946,Control_c,0,7,0
1,42971,Note_on_c,0,69,0
1,42988,Note_on_c,0,69,0
1,43066,Note_on_c,0,69,0
1,43104,Note_on_c,0,69,64
1,43137,Control_c,0,7,0
1,43161,Note_on_c,0,69,64
1,43216,Control_c,0,7,0
1,43263,Note_on_c,0,69,64
1,43303,Control_c,0,7,0
1,43380,Note_on_c,0,69,64
1,43407,Control_c,0,7,0
1,43433,Note_on_c,0,69,0
1,43436,Note_on_c,0,69,0
1,43437,Note_on_c,0,69,0
1,43440,Note_on_c,0,69,0
1,43486,Note_on_c,0,69,0
1,43583,Note_on_c,0,69,64
1,43610,Control_c,0,7,0
1,43707,Note_on_c,0,69,0
1,43735,Note_on_c,0,69,0
1,43737,Note_on_c,0,69,0
1,43776,Note_on_c,0,69,0
1,43782,Note_on_c,0,69,64
1,43802,Control_c,0,7,0
1,43805,Note_on_c,0,69,0
1,43815,Note_on_c,0,69,0
1,43839,Note_on_c,0,69,0
1,43861,Note_on_c,0,69,64
1,43930,Control_c,0,7,0
1,43997,Note_on_c,0,69,0
1,43998,Note_on_c,0,69,64
1,44020,Control_c,0,7,0
1,44023,Note_on_c,0,69,0
1,44028,Note_on_c,0,69,0
1,44029,Note_on_c,0,69,0
1,44033,Note_on_c,0,69,0
1,44102,Note_on_c,0,69,0
1,44117,Note_on_c,0,69,0
1,44119,Note_on_c,0,69,0
1,44157,Note_on_c,0,69,0
1,44184,Note_on_c,0,69,0
1,44233,Note_on_c,0,69,0
1,44249,Note_on_c,0,69,0
1,44334,Note_on_c,0,69,0
1,44377,Note_on_c,0,69,0
1,44403,Note_on_c,0,69,0
1,44465,Note_on_c,0,69,0
1,44532,Note_on_c,0,69,0
1,44555,Note_on_c,0,69,64
1,44614,Control_c,0,7,64
1,44666,Control_c,0,7,0
1,44687,Note_on_c,0,69,0
1,44706,Note_on_c,0,69,0
1,44719,Note_on_c,0,69,0
1,44721,Note_on_c,0,69,0
1,44725,Note_on_c,0,69,64
1,44763,Control_c,0,7,0
1,44794,Note_on_c,0,69,0
1,44802,Note_on_c,0,69,0
1,44848,Note_on_c,0,69,64
1,44914,Control_c,0,7,64
1,44929,Control_c,0,7,64
1,44931,Control_c,0,7,0
1,44934,Note_on_c,0,69,0
1,44980,Note_on_c,0,69,64
1,45046,Control_c,0,7,64
1,45133,Control_c,0,7,0
1,45133,Note_on_c,0,69,64
1,45158,Control_c,0,7,0
1,45192,Note_on_c,0,69,0
1,45229,Note_on_c,0,69,0
1,45292,Note_on_c,0,69,0
1,45369,Note_on_c,0,69,0
1,45416,Note_on_c,0,69,64
1,45424,Control_c,0,7,0
1,45479,Note_on_c,0,69,0
1,45491,Note_on_c,0,69,0
1,45504,Note_on_c,0,69,0
1,45513,Note_on_c,0,69,0
1,45652,Note_on_c,0,69,0
1,45663,Note_on_c,0,69,0
1,45678,Note_on_c,0,69,64
1,45720,Control_c,0,7,64
1,45741,Control_c,0,7,0
1,45753,Note_on_c,0,69,0
1,45817,Note_on_c,0,69,0
1,45877,Note_on_c,0,69,0
1,45920,Note_on_c,0,69,0
1,45934,Note_on_c,0,69,0
1,45936,Note_on_c,0,69,0
1,45971,Note_on_c,0,69,0
1,45995,Note_on_c,0,69,0
1,46040,Note_on_c,0,69,0
1,46046,Note_on_c,0,69,0
1,46080,Note_on_c,0,69,64
1,46153,Control_c,0,7,64
1,46165,Control_c,0,7,0
1,46168,Note_on_c,0,69,0
1,46204,Note_on_c,0,69,64
1,46266,Control_c,0,7,0
1,46297,Note_on_c,0,69,0
1,46312,Note_on_c,0,69,0
1,46313,Note_on_c,0,69,0
1,46317,Note_on_c,0,69,64
1,46392,Control_c,0,7,0
1,46418,Note_on_c,0,69,0
1,46438,Note_on_c,0,69,0
1,46523,Note_on_c,0,69,0
1,46533,Note_on_c,0,69,0
1,46580,Note_on_c,0,69,0
1,46597,Note_on_c,0,69,0
1,46616,Note_on_c,0,69,64
1,46639,Control_c,0,7,0
1,46661,Note_on_c,0,69,64
1,46670,Control_c,0,7,0
1,46716,Note_on_c,0,69,64
1,46733,Control_c,0,7,0
1,46746,Note_on_c,0,69,0
1,46750,Note_on_c,0,69,64
1,46780,Control_c,0,7,0
1,46802,Note_on_c,0,69,0
1,46852,Note_on_c,0,69,0
1,46862,Note_on_c,0,69,0
1,46885,Note_on_c,0,69,0
1,46973,Note_on_c,0,69,0
1,47017,Note_on_c,0,69,0
1,47023,Note_on_c,0,69,0
1,47152,Note_on_c,0,69,0
1,47154,Note_on_c,0,69,64
1,47216,Control_c,0,7,64
1,47260,Control_c,0,7,0
1,47282,Note_on_c,0,69,0
1,47329,Note_on_c,0,69,0
1,47342,Note_on_c,0,69,0
1,47349,Note_on_c,0,69,0
1,47362,Note_on_c,0,69,0
1,47469,Note_on_c,0,69,0
1,47513,Note_on_c,0,69,64
1,47561,Control_c,0,7,0
1,47568,Note_on_c,0,69,0
1,47598,Note_on_c,0,69,64
1,47629,Control_c,0,7,0
1,47631,Note_on_c,0,69,0
1,47657,Note_on_c,0,69,0
1,47658,Note_on_c,0,69,0
1,47699,Note_on_c,0,69,0
1,47713,Note_on_c,0,69,0
1,47725,Note_on_c,0,69,0
1,47821,Note_on_c,0,69,0
1,47844,Note_on_c,0,69,0
1,47966,Note_on_c,0,69,0
1,47983,Note_on_c,0,69,0
1,48023,Note_on_c,0,69,0
1,48129,Note_on_c,0,69,64
1,48225,Control_c,0,7,0
1,48244,Note_on_c,0,69,0
1,48245,Note_on_c,0,69,0
1,48255,Note_on_c,0,69,64
1,48433,Control_c,0,7,0
1,48453,Note_on_c,0,69,0
1,48456,Note_on_c,0,69,0
1,48466,Note_on_c,0,69,64
1,48519,Control_c,0,7,64
1,48536,Control_c,0,7,0
1,48537,Note_on_c,0,69,0
1,48538,Note_on_c,0,69,0
1,48559,Note_on_c,0,69,0
1,48567,Note_on_c,0,69,64
1,48570,Control_c,0,7,0
1,48585,Note_on_c,0,69,0
1,48585,Note_on_c,0,69,64
1,48599,Control_c,0,7,0
1,48650,Note_on_c,0,71,64
1,48661,Control_c,0,7,64
1,48683,Control_c,0,7,0
1,48798,Note_on_c,0,71,64
1,48835,Control_c,0,7,64
1,48949,Control_c,0,7,0
1,48982,Note_on_c,0,71,0
1,49007,Note_on_c,0,71,0
1,49036,Note_on_c,0,71,0
1,49072,Note_on_c,0,71,0
1,49090,Note_on_c,0,71,64
1,49118,Control_c,0,7,0
1,49142,Note_on_c,0,71,0
1,49146,Note_on_c,0,71,0
1,49148,Note_on_c,0,71,0
1,49166,Note_on_c,0,71,0
1,49211,Note_on_c,0,71,0
1,49306,Note_on_c,0,71,0
1,49315,Note_on_c,0,71,0
1,49339,Note_on_c,0,71,64
1,49367,Control_c,0,7,0
1,49371,Note_on_c,0,71,64
1,49391,Control_c,0,7,0
1,49485,Note_on_c,0,71,0
1,49507,Note_on_c,0,71,0
1,49539,Note_on_c,0,71,0
1,49540,Note_on_c,0,71,64
1,49636,Control_c,0,7,0
1,49657,Note_on_c,0,71,0
1,49666,Note_on_c,0,71,0
1,49717,Note_on_c,0,71,0
1,49746,Note_on_c,0,71,64
1,49757,Control_c,0,7,0
1,49785,Note_on_c,0,71,0
1,49865,Note_on_c,0,71,0
1,49877,Note_on_c,0,71,64
1,49898,Control_c,0,7,0
1,50016,Note_on_c,0,71,0
1,50056,Note_on_c,0,71,0
1,50075,Note_on_c,0,71,0
1,50132,Note_on_c,0,71,0
1,50176,Note_on_c,0,71,0
1,50307,Note_on_c,0,71,0
1,50326,Note_on_c,0,71,64
1,50330,Control_c,0,7,0
1,50357,Note_on_c,0,71,0
1,50405,Note_on_c,0,71,0
1,50407,Note_on_c,0,71,0
1,50431,Note_on_c,0,71,64
1,50517,Control_c,0,7,0
1,50529,Note_on_c,0,71,0
1,50599,Note_on_c,0,71,0
1,50612,Note_on_c,0,71,0
1,50622,Note_on_c,0,71,0
1,50622,Note_on_c,0,71,64
1,50634,Control_c,0,7,0
1,50643,Note_on_c,0,71,0
1,50683,Note_on_c,0,71,0
1,50721,Note_on_c,0,71,0
1,50750,Note_on_c,0,71,0
1,50772,Note_on_c,0,71,64
1,50832,Control_c,0,7,0
1,50866,Note_on_c,0,71,0
1,50885,Note_on_c,0,71,0
1,50908,Note_on_c,0,71,64
1,50914,Control_c,0,7,0
1,50927,Note_on_c,0,71,0
1,50993,Note_on_c,0,71,64
1,51007,Control_c,0,7,0
1,51010,Note_on_c,0,71,0
1,51041,Note_on_c,0,71,64
1,51057,Control_c,0,7,64
1,51087,Control_c,0,7,0
1,51125,Note_on_c,0,71,0
1,51157,Note_on_c,0,71,0
1,51176,Note_on_c,0,71,0
1,51251,Note_on_c,0,71,0
1,51261,Note_on_c,0,71,0
1,51300,Note_on_c,0,71,0
1,51308,Note_on_c,0,71,64
1,51320,Control_c,0,7,0
1,51355,Note_on_c,0,71,64
1,51357,Control_c,0,7,0
1,51384,Note_on_c,0,71,0
1,51428,Note_on_c,0,71,0
1,51467,Note_on_c,0,71,0
1,51468,Note_on_c,0,71,64
1,51526,Control_c,0,7,0
1,51527,Note_on_c,0,71,0
1,51565,Note_on_c,0,71,0
1,51574,Note_on_c,0,71,0
1,51642,Note_on_c,0,71,64
1,51648,Control_c,0,7,0
1,51652,Note_on_c,0,71,0
1,51721,Note_on_c,0,71,0
1,51743,Note_on_c,0,71,0
1,51850,Note_on_c,0,71,0
1,51874,Note_on_c,0,71,0
1,51932,Note_on_c,0,71,0
1,51980,Note_on_c,0,71,0
1,51983,Note_on_c,0,71,0
1,52008,Note_on_c,0,71,0
1,52021,Note_on_c,0,71,0
1,52032,Note_on_c,0,71,64
1,52034,Control_c,0,7,64
1,52059,Control_c,0,7,0
1,52104,Note_on_c,0,71,0
1,52115,Note_on_c,0,71,64
1,52135,Control_c,0,7,64
1,52202,Control_c,0,7,0
1,52208,Note_on_c,0,71,0
1,52211,Note_on_c,0,71,0
1,52269,Note_on_c,0,71,0
1,52325,Note_on_c,0,71,0
1,52325,Note_on_c,0,71,0
1,52389,Note_on_c,0,71,64
1,52474,Control_c,0,7,0
1,52491,Note_on_c,0,71,0
1,52522,Note_on_c,0,71,0
1,52526,Note_on_c,0,71,0
1,52553,Note_on_c,0,71,0
1,52578,Note_on_c,0,71,64
1,52599,Control_c,0,7,0
1,52610,Note_on_c,0,71,0
1,52652,Note_on_c,0,71,0
1,52659,Note_on_c,0,71,0
1,52667,Note_on_c,0,71,0
1,52731,Note_on_c,0,71,0
1,52759,Note_on_c,0,71,0
1,52766,Note_on_c,0,71,0
1,52773,Note_on_c,0,71,0
1,52813,Note_on_c,0,71,0
1,52815,Note_on_c,0,71,0
1,52824,Note_on_c,0,71,64
1,52871,Control_c,0,7,0
1,52948,Note_on_c,0,71,0
1,53009,Note_on_c,0,71,0
1,53043,Note_on_c,0,71,0
1,53055,Note_on_c,0,71,0
1,53088,Note_on_c,0,71,64
1,53118,Control_c,0,7,0
1,53130,Note_on_c,0,71,0
1,53137,Note_on_c,0,71,0
1,53176,Note_on_c,0,71,0
1,53221,Note_on_c,0,71,0
1,53231,Note_on_c,0,71,0
1,53276,Note_on_c,0,71,0
1,53321,Note_on_c,0,71,0
1,53346,Note_on_c,0,71,64
1,53440,Control_c,0,7,0
1,53516,Note_on_c,0,71,64
1,53535,Control_c,0,7,0
1,53541,Note_on_c,0,71,0
1,53569,Note_on_c,0,71,0
1,53622,Note_on_c,0,71,0
1,53640,Note_on_c,0,71,64
1,53692,Control_c,0,7,0
1,53708,Note_on_c,0,71,0
1,53723,Note_on_c,0,71,0
1,53789,Note_on_c,0,71,0
1,53809,Note_on_c,0,71,0
1,53811,Note_on_c,0,71,0
1,53831,Note_on_c,0,71,64
1,53866,Control_c,0,7,0
1,53873,Note_on_c,0,71,0
1,53963,Note_on_c,0,71,0
1,53974,Note_on_c,0,71,0
1,53981,Note_on_c,0,71,0
1,53998,Note_on_c,0,71,0
1,54061,Note_on_c,0,71,0
1,54113,Note_on_c,0,71,64
1,54134,Control_c,0,7,0
1,54134,Note_on_c,0,71,0
1,54137,Note_on_c,0,71,0
1,54163,Note_on_c,0,71,0
1,54204,Note_on_c,0,71,0
1,54247,Note_on_c,0,71,0
1,54271,Note_on_c,0,71,0
1,54271,Note_on_c,0,71,0
1,54291,Note_on_c,0,71,0
1,54321,Note_on_c,0,71,0
1,54337,Note_on_c,0,71,0
1,54343,Note_on_c,0,71,0
1,54353,Note_on_c,0,71,0
1,54399,Note_on_c,0,71,0
1,54432,Note_on_c,0,71,64
1,54607,Control_c,0,7,64
1,54660,Control_c,0,7,64
1,54832,Control_c,0,7,0
1,54837,Note_on_c,0,71,0
1,54851,Note_on_c,0,71,0
1,54908,Note_on_c,0,71,0
1,54914,Note_on_c,0,71,0
1,54920,Note_on_c,0,71,0
1,54949,Note_on_c,0,71,64
1,55044,Control_c,0,7,64
1,55053,Control_c,0,7,0
1,55056,Note_on_c,0,71,64
1,55065,Control_c,0,7,0
1,55081,Note_on_c,0,71,64
1,55082,Control_c,0,7,0
1,55114,Note_on_c,0,71,0
1,55152,Note_on_c,0,71,0
1,55163,Note_on_c,0,71,0
1,55165,Note_on_c,0,71,0
1,55180,Note_on_c,0,71,0
1,55258,Note_on_c,0,71,0
1,55285,Note_on_c,0,71,64
1,55307,Control_c,0,7,64
1,55312,Control_c,0,7,0
1,55444,Note_on_c,0,71,0
1,55570,Note_on_c,0,71,0
1,55571,Note_on_c,0,71,0
1,55640,Note_on_c,0,71,0
1,55679,Note_on_c,0,71,64
1,55680,Control_c,0,7,0
1,55755,Note_on_c,0,71,0
1,55786,Note_on_c,0,71,0
1,55808,Note_on_c,0,71,0
1,55827,Note_on_c,0,71,0
1,55832,Note_on_c,0,71,64
1,55839,Control_c,0,7,0
1,55841,Note_on_c,0,71,0
1,55864,Note_on_c,0,71,0
1,55881,Note_on_c,0,71,0
1,55895,Note_on_c,0,71,0
1,55928,Note_on_c,0,71,64
1,55939,Control_c,0,7,0
1,55951,Note_on_c,0,71,0
1,55968,Note_on_c,0,71,0
1,56004,Note_on_c,0,71,0
1,56010,Note_on_c,0,71,0
1,56044,Note_on_c,0,71,0
1,56060,Note_on_c,0,71,64
1,56180,Control_c,0,7,0
1,56185,Note_on_c,0,71,0
1,56250,Note_on_c,0,71,0
1,56346,Note_on_c,0,71,0
1,56367,Note_on_c,0,71,0
1,56375,Note_on_c,0,71,0
1,56436,Note_on_c,0,71,0
1,56459,Note_on_c,0,71,0
1,56473,Note_on_c,0,71,0
1,56525,Note_on_c,0,71,64
1,56558,Control_c,0,7,0
1,56574,Note_on_c,0,71,64
1,56593,Control_c,0,7,0
1,56597,Note_on_c,0,71,0
1,56648,Note_on_c,0,71,64
1,56686,Control_c,0,7,0
1,56711,Note_on_c,0,71,0
1,56751,Note_on_c,0,71,0
1,56767,Note_on_c,0,71,0
1,56820,Note_on_c,0,71,0
1,56858,Note_on_c,0,71,0
1,56905,Note_on_c,0,71,0
1,56941,Note_on_c,0,71,0
1,56968,Note_on_c,0,71,0
1,56984,Note_on_c,0,71,0
1,57000,Note_on_c,0,71,0
1,57017,Note_on_c,0,71,64
1,57040,Control_c,0,7,0
1,57066,Note_on_c,0,71,64
1,57073,Control_c,0,7,0
1,57094,Note_on_c,0,71,0
1,57096,Note_on_c,0,71,0
1,57099,Note_on_c,0,71,0
1,57162,Note_on_c,0,71,0
1,57218,Note_on_c,0,71,0
1,57222,Note_on_c,0,71,0
1,57237,Note_on_c,0,71,0
1,57248,Note_on_c,0,71,0
1,57250,Note_on_c,0,71,0
1,57280,Note_on_c,0,71,0
1,57353,Note_on_c,0,71,0
1,57460,Note_on_c,0,71,0
1,57490,Note_on_c,0,71,64
1,57521,Control_c,0,7,0
1,57598,Note_on_c,0,71,0
1,57601,Note_on_c,0,71,0
1,57616,Note_on_c,0,71,0
1,57642,Note_on_c,0,71,0
1,57672,Note_on_c,0,71,0
1,57674,Note_on_c,0,71,64
1,57700,Control_c,0,7,0
1,57703,Note_on_c,0,71,0
1,57732,Note_on_c,0,71,0
1,57743,Note_on_c,0,71,0
1,57761,Note_on_c,0,71,0
1,57795,Note_on_c,0,71,0
1,57820,Note_on_c,0,71,0
1,57925,Note_on_c,0,71,64
1,57948,Control_c,0,7,0
1,57978,Note_on_c,0,71,0
1,58027,Note_on_c,0,71,0
1,58035,Note_on_c,0,71,0
1,58070,Note_on_c,0,71,0
1,58103,Note_on_c,0,71,0
1,58139,Note_on_c,0,71,0
1,58144,Note_on_c,0,71,0
1,58152,Note_on_c,0,71,64
1,58158,Control_c,0,7,0
1,58302,Note_on_c,0,71,0
1,58371,Note_on_c,0,71,0
1,58371,Note_on_c,0,71,0
1,58434,Note_on_c,0,71,0
1,58448,Note_on_c,0,71,64
1,58498,Control_c,0,7,0
1,58508,Note_on_c,0,71,0
1,58513,Note_on_c,0,71,0
1,58526,Note_on_c,0,71,0
1,58569,Note_on_c,0,71,0
1,58582,Note_on_c,0,71,64
1,58626,Control_c,0,7,0
1,58633,Note_on_c,0,71,0
1,58642,Note_on_c,0,71,0
1,58679,Note_on_c,0,71,0
1,58683,Note_on_c,0,71,0
1,58705,Note_on_c,0,71,64
1,58749,Control_c,0,7,0
1,58753,Note_on_c,0,71,0
1,58869,Note_on_c,0,71,0
1,58883,Note_on_c,0,71,64
1,58995,Control_c,0,7,0
1,58996,Note_on_c,0,71,0
1,59200,Note_on_c,0,71,0
1,59200,Note_on_c,0,71,0
1,59243,Note_on_c,0,71,0
1,59266,Note_on_c,0,71,0
1,59267,Note_on_c,0,71,0
1,59279,Note_on_c,0,71,0
1,59298,Note_on_c,0,71,0
1,59409,Note_on_c,0,71,0
1,59416,Note_on_c,0,71,0
1,59422,Note_on_c,0,71,0
1,59429,Note_on_c,0,71,0
1,59460,Note_on_c,0,71,0
1,59513,Note_on_c,0,71,0
1,59519,Note_on_c,0,71,0
1,59557,Note_on_c,0,71,0
1,59576,Note_on_c,0,71,64
1,59584,Control_c,0,7,0
1,59585,Note_on_c,0,71,0
1,59628,Note_on_c,0,71,0
1,59666,Note_on_c,0,71,0
1,59691,Note_on_c,0,71,0
1,59718,Note_on_c,0,71,0
1,59724,Note_on_c,0,71,0
1,59750,Note_on_c,0,71,0
1,59776,Note_on_c,0,71,0
1,59831,Note_on_c,0,71,0
1,59834,Note_on_c,0,71,64
1,59877,Control_c,0,7,0
1,59902,Note_on_c,0,71,0
1,59934,Note_on_c,0,71,0
1,59947,Note_on_c,0,71,0
1,59956,Note_on_c,0,71,0
1,59968,Note_on_c,0,71,64
1,60052,Control_c,0,7,0
1,60168,Note_on_c,0,71,0
1,60177,Note_on_c,0,71,0
1,60181,Note_on_c,0,71,0
1,60283,Note_on_c,0,71,64
1,60289,Control_c,0,7,0
1,60342,Note_on_c,0,71,0
1,60344,Note_on_c,0,71,0
1,60458,Note_on_c,0,71,0
1,60592,Note_on_c,0,71,0
1,60594,Note_on_c,0,71,0
1,60652,Note_on_c,0,71,0
1,60787,Note_on_c,0,71,64
1,60791,Control_c,0,7,0
1,60793,Note_on_c,0,71,0
1,60802,Note_on_c,0,71,0
1,60834,Note_on_c,0,71,0
1,60837,Note_on_c,0,71,64
1,60840,Control_c,0,7,0
1,60877,Note_on_c,0,71,0
1,60882,Note_on_c,0,71,0
1,60912,Note_on_c,0,71,0
1,60939,Note_on_c,0,71,64
1,61042,Control_c,0,7,0
1,61057,Note_on_c,0,71,0
1,61065,Note_on_c,0,71,64
1,61106,Control_c,0,7,0
1,61129,Note_on_c,0,71,0
1,61229,Note_on_c,0,71,64
1,61242,Control_c,0,7,0
1,61257,Note_on_c,0,71,64
1,61316,Control_c,0,7,0
1,61369,Note_on_c,0,71,0
1,61386,Note_on_c,0,71,64
1,61387,Control_c,0,7,0
1,61393,Note_on_c,0,71,64
1,61396,Control_c,0,7,64
1,61399,Control_c,0,7,0
1,61410,Note_on_c,0,71,0
1,61423,Note_on_c,0,71,0
1,61466,Note_on_c,0,71,64
1,61468,Control_c,0,7,0
1,61481,Note_on_c,0,71,0
1,61527,Note_on_c,0,71,0
1,61567,Note_on_c,0,71,0
1,61572,Note_on_c,0,71,0
1,61581,Note_on_c,0,71,0
1,61619,Note_on_c,0,71,0
1,61624,Note_on_c,0,71,0
1,61686,Note_on_c,0,71,0
1,61804,Note_on_c,0,71,0
1,61855,Note_on_c,0,71,0
1,61868,Note_on_c,0,71,64
1,61881,Control_c,0,7,0
1,61888,Note_on_c,0,71,64
1,61927,Control_c,0,7,64
1,61928,Control_c,0,7,0
1,61930,Note_on_c,0,71,0
1,61984,Note_on_c,0,71,0
1,61994,Note_on_c,0,71,0
1,62048,Note_on_c,0,71,0
1,62050,Note_on_c,0,71,0
1,62082,Note_on_c,0,71,0
1,62108,Note_on_c,0,71,0
1,62151,Note_on_c,0,71,0
1,62151,Note_on_c,0,71,0
1,62164,Note_on_c,0,71,0
1,62181,Note_on_c,0,71,0
1,62201,Note_on_c,0,71,64
1,62204,Control_c,0,7,0
1,62260,Note_on_c,0,71,0
1,62261,Note_on_c,0,71,0
1,62302,Note_on_c,0,71,0
1,62332,Note_on_c,0,71,64
1,62341,Control_c,0,7,0
1,62344,Note_on_c,0,71,0
1,62389,Note_on_c,0,71,0
1,62451,Note_on_c,0,71,64
1,62466,Control_c,0,7,0
1,62522,Note_on_c,0,71,0
1,62541,Note_on_c,0,71,64
1,62552,Control_c,0,7,0
1,62559,Note_on_c,0,71,0
1,62570,Note_on_c,0,71,0
1,62645,Note_on_c,0,71,64
1,62697,Control_c,0,7,0
1,62699,Note_on_c,0,71,0
1,62729,Note_on_c,0,71,0
1,62770,Note_on_c,0,71,64
1,62787,Control_c,0,7,0
1,62793,Note_on_c,0,71,0
1,62820,Note_on_c,0,71,0
1,62860,Note_on_c,0,71,0
1,62890,Note_on_c,0,71,0
1,62925,Note_on_c,0,71,0
1,62955,Note_on_c,0,71,0
1,62991,Note_on_c,0,71,0
1,63094,Note_on_c,0,71,0
1,63101,Note_on_c,0,71,0
1,63116,Note_on_c,0,71,0
1,63175,Note_on_c,0,71,0
1,63184,Note_on_c,0,71,0
1,63191,Note_on_c,0,71,0
1,63207,Note_on_c,0,71,0
1,63311,Note_on_c,0,71,0
1,63378,Note_on_c,0,71,64
1,63382,Control_c,0,7,0
1,63408,Note_on_c,0,71,0
1,63415,Note_on_c,0,71,0
1,63445,Note_on_c,0,71,0
1,63533,Note_on_c,0,71,0
1,63577,Note_on_c,0,71,0
1,63583,Note_on_c,0,71,0
1,63630,Note_on_c,0,71,0
1,63654,Note_on_c,0,71,0
1,63668,Note_on_c,0,71,0
1,63722,Note_on_c,0,71,0
1,63769,Note_on_c,0,71,0
1,63868,Note_on_c,0,71,0
1,63895,Note_on_c,0,71,0
1,63900,Note_on_c,0,71,0
1,63919,Note_on_c,0,71,0
1,63988,Note_on_c,0,71,0
1,64186,Note_on_c,0,71,64
1,64221,Control_c,0,7,0
1,64239,Note_on_c,0,71,0
1,64247,Note_on_c,0,71,0
1,64314,Note_on_c,0,71,0
1,64350,Note_on_c,0,71,0
1,64415,Note_on_c,0,71,0
1,64435,Note_on_c,0,71,0
1,64441,Note_on_c,0,71,64
1,64468,Control_c,0,7,0
1,64472,Note_on_c,0,71,0
1,64522,Note_on_c,0,71,0
1,64557,Note_on_c,0,71,0
1,64560,Note_on_c,0,71,64
1,64561,Control_c,0,7,0
1,64603,Note_on_c,0,71,64
1,64632,Control_c,0,7,0
1,64645,Note_on_c,0,71,0
1,64664,Note_on_c,0,71,0
1,64733,Note_on_c,0,71,0
1,64740,Note_on_c,0,71,0
1,64772,Note_on_c,0,71,64
1,64833,Control_c,0,7,0
1,64858,Note_on_c,0,71,0
1,64862,Note_on_c,0,71,0
1,64886,Note_on_c,0,71,64
1,64919,Control_c,0,7,64
1,64950,Control_c,0,7,0
1,64950,Note_on_c,0,71,0
1,65029,Note_on_c,0,71,64
1,65036,Control_c,0,7,0
1,65036,Note_on_c,0,71,0
1,65039,Note_on_c,0,71,0
1,65079,Note_on_c,0,71,64
1,65080,Control_c,0,7,0
1,65083,Note_on_c,0,71,0
1,65115,Note_on_c,0,71,0
1,65152,Note_on_c,0,71,0
1,65249,Note_on_c,0,71,0
1,65258,Note_on_c,0,71,0
1,65424,Note_on_c,0,71,0
1,65465,Note_on_c,0,71,0
1,65486,Note_on_c,0,71,0
1,65564,Note_on_c,0,71,0
1,65564,Note_on_c,0,71,0
1,65597,Note_on_c,0,71,0
1,65660,Note_on_c,0,71,0
1,65695,Note_on_c,0,71,64
1,65711,Control_c,0,7,0
1,65711,Note_on_c,0,71,0
1,65732,Note_on_c,0,71,0
1,65733,Note_on_c,0,71,0
1,65750,Note_on_c,0,71,0
1,65789,Note_on_c,0,71,0
1,65806,Note_on_c,0,71,0
1,65859,Note_on_c,0,71,0
1,65891,Note_on_c,0,71,0
1,65930,Note_on_c,0,71,0
1,65957,Note_on_c,0,71,0
1,65980,Note_on_c,0,71,0
1,65981,Note_on_c,0,71,0
1,65995,Note_on_c,0,71,0
1,66045,Note_on_c,0,71,0
1,66086,Note_on_c,0,71,0
1,66177,Note_on_c,0,71,0
1,66180,Note_on_c,0,71,0
1,66199,Note_on_c,0,71,64
1,66240,Control_c,0,7,0
1,66261,Note_on_c,0,71,0
1,66263,Note_on_c,0,71,0
1,66283,Note_on_c,0,71,0
1,66346,Note_on_c,0,71,0
1,66358,Note_on_c,0,71,0
1,66365,Note_on_c,0,71,0
1,66383,Note_on_c,0,71,0
1,66405,Note_on_c,0,71,0
1,66450,Note_on_c,0,71,0
1,66564,Note_on_c,0,71,0
1,66609,Note_on_c,0,71,0
1,66675,Note_on_c,0,71,0
1,66677,Note_on_c,0,71,64
1,66687,Control_c,0,7,64
1,66838,Control_c,0,7,0
1,66845,Note_on_c,0,71,0
1,66860,Note_on_c,0,71,0
1,66875,Note_on_c,0,71,0
1,66994,Note_on_c,0,71,0
1,66997,Note_on_c,0,71,64
1,67044,Control_c,0,7,0
1,67146,Note_on_c,0,71,64
1,67214,Control_c,0,7,0
1,67250,Note_on_c,0,71,0
1,67263,Note_on_c,0,71,0
1,67300,Note_on_c,0,71,64
1,67330,Control_c,0,7,0
1,67346,Note_on_c,0,71,64
1,67365,Control_c,0,7,0
1,67414,Note_on_c,0,71,0
1,67474,Note_on_c,0,71,64
1,67481,Control_c,0,7,0
1,67508,Note_on_c,0,71,0
1,67543,Note_on_c,0,71,0
1,67543,Note_on_c,0,71,0
1,67548,Note_on_c,0,71,0
1,67554,Note_on_c,0,71,64
1,67565,Control_c,0,7,64
1,67589,Control_c,0,7,0
1,67608,Note_on_c,0,71,0
1,67647,Note_on_c,0,71,0
1,67669,Note_on_c,0,71,0
1,67684,Note_on_c,0,71,0
1,67702,Note_on_c,0,71,0
1,67740,Note_on_c,0,71,0
1,67761,Note_on_c,0,71,64
1,67825,Control_c,0,7,0
1,67841,Note_on_c,0,71,0
1,67882,Note_on_c,0,71,0
1,67903,Note_on_c,0,71,0
1,67930,Note_on_c,0,71,64
1,67951,Control_c,0,7,0
1,67964,Note_on_c,0,71,0
1,67973,Note_on_c,0,71,0
1,67990,Note_on_c,0,71,0
1,67996,Note_on_c,0,71,0
1,68038,Note_on_c,0,71,64
1,68089,Control_c,0,7,0
1,68161,Note_on_c,0,71,0
1,68184,Note_on_c,0,71,0
1,68223,Note_on_c,0,71,0
1,68342,Note_on_c,0,71,0
1,68346,Note_on_c,0,71,64
1,68376,Control_c,0,7,0
1,68378,Note_on_c,0,71,0
1,68411,Note_on_c,0,71,0
1,68439,Note_on_c,0,71,64
1,68461,Control_c,0,7,64
1,68464,Control_c,0,7,0
1,68476,Note_on_c,0,71,0
1,68591,Note_on_c,0,71,0
1,68665,Note_on_c,0,71,0
1,68755,Note_on_c,0,71,0
1,68756,Note_on_c,0,71,0
1,68803,Note_on_c,0,71,0
1,68828,Note_on_c,0,71,0
1,68858,Note_on_c,0,71,64
1,68867,Control_c,0,7,0
1,68877,Note_on_c,0,71,0
1,68883,Note_on_c,0,71,0
1,68884,Note_on_c,0,71,0
1,68898,Note_on_c,0,71,0
1,68944,Note_on_c,0,71,0
1,68946,Note_on_c,0,71,0
1,68949,Note_on_c,0,71,0
1,69053,Note_on_c,0,71,0
1,69056,Note_on_c,0,71,0
1,69092,Note_on_c,0,71,0
1,69158,Note_on_c,0,71,0
1,69228,Note_on_c,0,71,0
1,69236,Note_on_c,0,71,0
1,69249,Note_on_c,0,71,0
1,69276,Note_on_c,0,71,0
1,69285,Note_on_c,0,71,0
1,69305,Note_on_c,0,71,0
1,69330,Note_on_c,0,71,0
1,69332,Note_on_c,0,71,0
1,69337,Note_on_c,0,71,0
1,69351,Note_on_c,0,71,0
1,69377,Note_on_c,0,71,0
1,69380,Note_on_c,0,71,0
1,69470,Note_on_c,0,71,0
1,69525,Note_on_c,0,71,64
1,69583,Control_c,0,7,0
1,69644,Note_on_c,0,71,0
1,69652,Note_on_c,0,71,0
1,69660,Note_on_c,0,71,0
1,69742,Note_on_c,0,71,0
1,69752,Note_on_c,0,71,0
1,69766,Note_on_c,0,71,0
1,69812,Note_on_c,0,71,0
1,69812,Note_on_c,0,71,0
1,69832,Note_on_c,0,71,0
1,69852,Note_on_c,0,71,0
1,69894,Note_on_c,0,71,0
1,69936,Note_on_c,0,71,0
1,69959,Note_on_c,0,71,0
1,69997,Note_on_c,0,71,0
1,70020,Note_on_c,0,71,0
1,70167,Note_on_c,0,71,0
1,70184,Note_on_c,0,71,0
1,70235,Note_on_c,0,71,0
1,70236,Note_on_c,0,71,0
1,70271,Note_on_c,0,71,0
1,70287,Note_on_c,0,71,0
1,70296,Note_on_c,0,71,0
1,70298,Note_on_c,0,71,0
1,70325,Note_on_c,0,71,0
1,70345,Note_on_c,0,71,0
1,70454,Note_on_c,0,71,0
1,70547,Note_on_c,0,71,0
1,70579,Note_on_c,0,71,0
1,70588,Note_on_c,0,71,0
1,70608,Note_on_c,0,71,0
1,70613,Note_on_c,0,71,0
1,70631,Note_on_c,0,71,0
1,70643,Note_on_c,0,71,0
1,70690,Note_on_c,0,71,0
1,70730,Note_on_c,0,71,64
1,70781,Control_c,0,7,0
1,70811,Note_on_c,0,71,0
1,70821,Note_on_c,0,71,0
1,70941,Note_on_c,0,71,0
1,71014,Note_on_c,0,71,0
1,71015,Note_on_c,0,71,0
1,71026,Note_on_c,0,71,64
1,71095,Control_c,0,7,0
1,71097,Note_on_c,0,71,64
1,71140,Control_c,0,7,64
1,71169,Control_c,0,7,0
1,71260,Note_on_c,0,71,64
1,71266,Control_c,0,7,0
1,71309,Note_on_c,0,71,0
1,71388,Note_on_c,0,71,0
1,71405,Note_on_c,0,71,0
1,71414,Note_on_c,0,71,64
1,71419,Control_c,0,7,64
1,71462,Control_c,0,7,0
1,71479,Note_on_c,0,71,0
1,71512,Note_on_c,0,71,0
1,71539,Note_on_c,0,71,0
1,71577,Note_on_c,0,71,0
1,71582,Note_on_c,0,71,0
1,71585,Note_on_c,0,71,0
1,71636,Note_on_c,0,71,0
1,71735,Note_on_c,0,71,0
1,71922,Note_on_c,0,71,0
1,71988,Note_on_c,0,71,0
1,72016,Note_on_c,0,71,0
1,72069,Note_on_c,0,71,0
1,72078,Note_on_c,0,71,0
1,72127,Note_on_c,0,71,64
1,72139,Control_c,0,7,0
1,72184,Note_on_c,0,71,0
1,72224,Note_on_c,0,71,0
1,72338,Note_on_c,0,71,64
1,72366,Control_c,0,7,0
1,72373,Note_on_c,0,71,0
1,72397,Note_on_c,0,71,0
1,72462,Note_on_c,0,71,0
1,72464,Note_on_c,0,71,0
1,72598,Note_on_c,0,71,64
1,72600,Control_c,0,7,0
1,72627,Note_on_c,0,71,0
1,72642,Note_on_c,0,71,0
1,72668,Note_on_c,0,71,0
1,72693,Note_on_c,0,71,0
1,72697,Note_on_c,0,71,0
1,72698,Note_on_c,0,71,0
1,72723,Note_on_c,0,71,0
1,72776,Note_on_c,0,71,0
1,72799,Note_on_c,0,71,0
1,72833,Note_on_c,0,71,0
1,72858,Note_on_c,0,71,64
1,72919,Control_c,0,7,0
1,72936,Note_on_c,0,71,0
1,73005,Note_on_c,0,71,0
1,73049,Note_on_c,0,71,0
1,73055,Note_on_c,0,71,0
1,73060,Note_on_c,0,71,0
1,73066,Note_on_c,0,71,0
1,73075,Note_on_c,0,71,0
1,73083,Note_on_c,0,71,0
1,73117,Note_on_c,0,71,0
1,73162,Note_on_c,0,71,0
1,73204,Note_on_c,0,71,0
1,73209,Note_on_c,0,71,0
1,73309,Note_on_c,0,71,0
1,73345,Note_on_c,0,71,0
1,73360,Note_on_c,0,71,0
1,73382,Note_on_c,0,71,0
1,73385,Note_on_c,0,71,0
1,73409,Note_on_c,0,71,0
1,73425,Note_on_c,0,71,64
1,73504,Control_c,0,7,0
1,73568,Note_on_c,0,71,64
1,73600,Control_c,0,7,64
1,73662,Control_c,0,7,0
1,73665,Note_on_c,0,71,0
1,73668,Note_on_c,0,71,0
1,73684,Note_on_c,0,71,0
1,73695,Note_on_c,0,71,0
1,73739,Note_on_c,0,71,0
1,73749,Note_on_c,0,71,0
1,73775,Note_on_c,0,71,0
1,73858,Note_on_c,0,71,0
1,73902,Note_on_c,0,71,64
1,73918,Control_c,0,7,0
1,74028,Note_on_c,0,71,64
1,74041,Control_c,0,7,0
1,74055,Note_on_c,0,71,64
1,74071,Control_c,0,7,64
1,74073,Control_c,0,7,0
1,74104,Note_on_c,0,71,64
1,74105,Control_c,0,7,64
1,74108,Control_c,0,7,0
1,74124,Note_on_c,0,71,0
1,74148,Note_on_c,0,71,0
1,74161,Note_on_c,0,71,0
1,74164,Note_on_c,0,71,64
1,74187,Control_c,0,7,0
1,74216,Note_on_c,0,71,0
1,74245,Note_on_c,0,71,0
1,74306,Note_on_c,0,71,0
1,74326,Note_on_c,0,71,64
1,74331,Control_c,0,7,0
1,74352,Note_on_c,0,71,0
1,74373,Note_on_c,0,71,0
1,74373,Note_on_c,0,71,0
1,74459,Note_on_c,0,71,0
1,74537,Note_on_c,0,71,0
1,74555,Note_on_c,0,71,0
1,74601,Note_on_c,0,71,0
1,74633,Note_on_c,0,71,0
1,74649,Note_on_c,0,71,0
1,74684,Note_on_c,0,71,0
1,74690,Note_on_c,0,71,64
1,74753,Control_c,0,7,0
1,74812,Note_on_c,0,71,64
1,74857,Control_c,0,7,0
1,74865,Note_on_c,0,71,0
1,74974,Note_on_c,0,71,0
1,74982,Note_on_c,0,71,0
1,74997,Note_on_c,0,71,0
1,75015,Note_on_c,0,71,0
1,75039,Note_on_c,0,71,0
1,75068,Note_on_c,0,71,0
1,75135,Note_on_c,0,71,0
1,75322,Note_on_c,0,71,64
1,75328,Control_c,0,7,0
1,75335,Note_on_c,0,71,0
1,75383,Note_on_c,0,71,0
1,75395,Note_on_c,0,71,64
1,75422,Control_c,0,7,0
1,75474,Note_on_c,0,71,0
1,75482,Note_on_c,0,71,64
1,75493,Control_c,0,7,0
1,75531,Note_on_c,0,71,0
1,75533,Note_on_c,0,71,0
1,75539,Note_on_c,0,71,0
1,75585,Note_on_c,0,71,64
1,75602,Control_c,0,7,0
1,75659,Note_on_c,0,71,64
1,75680,Control_c,0,7,0
1,75683,Note_on_c,0,71,0
1,75690,Note_on_c,0,71,0
1,75728,Note_on_c,0,71,0
1,75864,Note_on_c,0,71,0
1,75876,Note_on_c,0,71,0
1,75878,Note_on_c,0,71,0
1,75947,Note_on_c,0,71,0
1,75976,Note_on_c,0,71,0
1,76014,Note_on_c,0,71,0
1,76016,Note_on_c,0,71,0
1,76017,Note_on_c,0,71,64
1,76055,Control_c,0,7,0
1,76138,Note_on_c,0,71,0
1,76141,Note_on_c,0,71,0
1,76213,Note_on_c,0,71,0
1,76232,Note_on_c,0,71,0
1,76232,Note_on_c,0,71,0
1,76234,Note_on_c,0,71,0
1,76254,Note_on_c,0,71,0
1,76280,Note_on_c,0,71,0
1,76336,Note_on_c,0,71,0
1,76349,Note_on_c,0,71,64
1,76376,Control_c,0,7,64
1,76427,Control_c,0,7,0
1,76450,Note_on_c,0,71,0
1,76463,Note_on_c,0,71,64
1,76472,Control_c,0,7,0
1,76496,Note_on_c,0,71,0
1,76506,Note_on_c,0,71,64
1,76509,Control_c,0,7,0
1,76525,Note_on_c,0,71,0
1,76531,Note_on_c,0,71,0
1,76552,Note_on_c,0,71,64
1,76586,Control_c,0,7,0
1,76618,Note_on_c,0,71,0
1,76633,Note_on_c,0,71,0
1,76670,Note_on_c,0,71,0
1,76710,Note_on_c,0,71,64
1,76744,Control_c,0,7,0
1,76788,Note_on_c,0,71,0
1,76790,Note_on_c,0,71,0
1,76806,Note_on_c,0,71,0
1,76818,Note_on_c,0,71,0
1,76924,Note_on_c,0,71,0
1,77056,Note_on_c,0,71,0
1,77129,Note_on_c,0,71,0
1,77138,Note_on_c,0,71,0
1,77169,Note_on_c,0,71,0
1,77207,Note_on_c,0,71,64
1,77270,Control_c,0,7,0
1,77449,Note_on_c,0,71,0
1,77449,Note_on_c,0,71,0
1,77466,Note_on_c,0,71,0
1,77476,Note_on_c,0,71,0
1,77683,Note_on_c,0,71,0
1,77768,Note_on_c,0,71,0
1,77787,Note_on_c,0,71,0
1,77805,Note_on_c,0,71,64
1,77836,Control_c,0,7,0
1,77857,Note_on_c,0,71,0
1,77897,Note_on_c,0,71,0
1,77910,Note_on_c,0,71,0
1,77911,Note_on_c,0,71,0
1,77944,Note_on_c,0,71,0
1,77964,Note_on_c,0,71,0
1,77967,Note_on_c,0,71,0
1,77972,Note_on_c,0,71,0
1,78033,Note_on_c,0,71,0
1,78108,Note_on_c,0,71,0
1,78149,Note_on_c,0,71,0
1,78208,Note_on_c,0,71,0
1,78240,Note_on_c,0,71,0
1,78346,Note_on_c,0,71,0
1,78538,Note_on_c,0,71,0
1,78548,Note_on_c,0,71,64
1,78583,Control_c,0,7,64
1,78589,Control_c,0,7,64
1,78635,Control_c,0,7,0
1,78698,Note_on_c,0,71,0
1,78713,Note_on_c,0,71,0
1,78789,Note_on_c,0,71,64
1,78798,Control_c,0,7,0
1,78829,Note_on_c,0,71,64
1,78876,Control_c,0,7,0
1,78903,Note_on_c,0,71,0
1,78965,Note_on_c,0,71,0
1,79029,Note_on_c,0,71,0
1,79087,Note_on_c,0,71,0
1,79113,Note_on_c,0,71,64
1,79131,Control_c,0,7,0
1,79145,Note_on_c,0,71,0
1,79149,Note_on_c,0,71,0
1,79151,Note_on_c,0,71,0
1,79200,Note_on_c,0,71,0
1,79219,Note_on_c,0,71,0
1,79260,Note_on_c,0,71,0
1,79264,Note_on_c,0,71,0
1,79270,Note_on_c,0,71,0
1,79274,Note_on_c,0,71,64
1,79283,Control_c,0,7,0
1,79314,Note_on_c,0,71,64
1,79365,Control_c,0,7,0
1,79383,Note_on_c,0,71,0
1,79397,Note_on_c,0,71,0
1,79414,Note_on_c,0,71,64
1,79419,Control_c,0,7,0
1,79423,Note_on_c,0,71,0
1,79467,Note_on_c,0,71,0
1,79533,Note_on_c,0,71,0
1,79618,Note_on_c,0,71,0
1,79619,Note_on_c,0,71,0
1,79645,Note_on_c,0,71,0
1,79707,Note_on_c,0,71,0
1,79709,Note_on_c,0,71,0
1,79734,Note_on_c,0,71,64
1,79744,Control_c,0,7,0
1,79928,Note_on_c,0,71,0
1,79945,Note_on_c,0,71,0
1,80035,Note_on_c,0,71,0
1,80060,Note_on_c,0,71,0
1,80063,Note_on_c,0,71,0
1,80080,Note_on_c,0,71,0
1,80093,Note_on_c,0,71,64
1,80117,Control_c,0,7,64
1,80227,Control_c,0,7,0
1,80340,Note_on_c,0,71,0
1,80365,Note_on_c,0,71,0
1,80399,Note_on_c,0,71,64
1,80476,Control_c,0,7,0
1,80479,Note_on_c,0,71,0
1,80529,Note_on_c,0,71,0
1,80619,Note_on_c,0,71,64
1,80650,Control_c,0,7,0
1,80740,Note_on_c,0,71,64
1,80771,Control_c,0,7,0
1,80774,Note_on_c,0,71,0
1,80780,Note_on_c,0,71,0
1,80786,Note_on_c,0,71,0
1,80793,Note_on_c,0,71,0
1,80794,Note_on_c,0,71,0
1,80811,Note_on_c,0,71,0
1,80947,Note_on_c,0,71,0
1,80963,Note_on_c,0,71,0
1,81008,Note_on_c,0,71,0
1,81033,Note_on_c,0,71,0
1,81105,Note_on_c,0,71,0
1,81108,Note_on_c,0,71,0
1,81125,Note_on_c,0,71,0
1,81171,Note_on_c,0,71,64
1,81226,Control_c,0,7,0
1,81324,Note_on_c,0,71,0
1,81379,Note_on_c,0,71,64
1,81388,Control_c,0,7,0
1,81388,Note_on_c,0,71,0
1,81410,Note_on_c,0,71,64
1,81548,Control_c,0,7,0
1,81555,Note_on_c,0,71,64
1,81581,Control_c,0,7,0
1,81602,Note_on_c,0,71,0
1,81613,Note_on_c,0,71,0
1,81628,Note_on_c,0,71,0
1,81646,Note_on_c,0,71,64
1,81652,Control_c,0,7,0
1,81677,Note_on_c,0,71,0
1,81687,Note_on_c,0,71,0
1,81738,Note_on_c,0,71,64
1,81768,Control_c,0,7,0
1,81809,Note_on_c,0,71,0
1,81824,Note_on_c,0,71,64
1,81825,Control_c,0,7,0
1,81858,Note_on_c,0,71,64
1,81881,Control_c,0,7,0
1,81888,Note_on_c,0,71,0
1,81931,Note_on_c,0,71,0
1,81969,Note_on_c,0,71,0
1,81996,Note_on_c,0,71,0
1,82023,Note_on_c,0,71,0
1,82073,Note_on_c,0,71,0
1,82078,Note_on_c,0,71,0
1,82111,Note_on_c,0,71,0
1,82117,Note_on_c,0,71,64
1,82159,Control_c,0,7,0
1,82165,Note_on_c,0,71,0
1,82211,Note_on_c,0,71,0
1,82223,Note_on_c,0,71,0
1,82288,Note_on_c,0,71,0
1,82359,Note_on_c,0,71,0
1,82381,Note_on_c,0,71,0
1,82480,Note_on_c,0,71,64
1,82487,Control_c,0,7,0
1,82494,Note_on_c,0,71,64
1,82496,Control_c,0,7,64
1,82532,Control_c,0,7,0
1,82533,Note_on_c,0,71,0
1,82599,Note_on_c,0,71,0
1,82632,Note_on_c,0,71,0
1,82640,Note_on_c,0,71,0
1,82645,Note_on_c,0,71,0
1,82664,Note_on_c,0,71,0
1,82665,Note_on_c,0,71,64
1,82668,Control_c,0,7,0
1,82700,Note_on_c,0,71,0
1,82748,Note_on_c,0,71,0
1,82822,Note_on_c,0,71,0
1,82874,Note_on_c,0,71,0
1,82879,Note_on_c,0,71,0
1,82880,Note_on_c,0,71,0
1,82963,Note_on_c,0,71,0
1,82987,Note_on_c,0,71,0
1,83001,Note_on_c,0,71,0
1,83008,Note_on_c,0,71,0
1,83012,Note_on_c,0,71,0
1,83086,Note_on_c,0,71,64
1,83137,Control_c,0,7,0
1,83142,Note_on_c,0,71,0
1,83148,Note_on_c,0,71,0
1,83181,Note_on_c,0,71,0
1,83244,Note_on_c,0,71,0
1,83245,Note_on_c,0,71,0
1,83344,Note_on_c,0,71,0
1,83347,Note_on_c,0,71,0
1,83350,Note_on_c,0,71,0
1,83371,Note_on_c,0,71,0
1,83424,Note_on_c,0,71,0
1,83445,Note_on_c,0,71,0
1,83453,Note_on_c,0,71,64
1,83457,Control_c,0,7,0
1,83499,Note_on_c,0,71,0
1,83500,Note_on_c,0,71,0
1,83503,Note_on_c,0,71,0
1,83587,Note_on_c,0,71,0
1,83587,Note_on_c,0,71,64
1,83669,Control_c,0,7,0
1,83698,Note_on_c,0,71,0
1,83730,Note_on_c,0,71,64
1,83793,Control_c,0,7,0
1,83865,Note_on_c,0,71,0
1,83962,Note_on_c,0,71,0
1,83971,Note_on_c,0,71,64
1,84024,Control_c,0,7,0
1,84025,Note_on_c,0,71,0
1,84033,Note_on_c,0,71,0
1,84053,Note_on_c,0,71,0
1,84100,Note_on_c,0,71,0
1,84149,Note_on_c,0,71,64
1,84169,Control_c,0,7,0
1,84169,Note_on_c,0,71,0
1,84203,Note_on_c,0,71,0
1,84238,Note_on_c,0,71,0
1,84239,Note_on_c,0,71,0
1,84328,Note_on_c,0,71,0
1,84332,Note_on_c,0,71,0
1,84347,Note_on_c,0,71,0
1,84376,Note_on_c,0,71,0
1,84400,Note_on_c,0,71,64
1,84402,Control_c,0,7,0
1,84491,Note_on_c,0,71,0
1,84499,Note_on_c,0,71,0
1,84557,Note_on_c,0,71,0
1,84562,Note_on_c,0,71,0
1,84566,Note_on_c,0,71,0
1,84644,Note_on_c,0,71,64
1,84651,Control_c,0,7,0
1,84761,Note_on_c,0,71,0
1,84794,Note_on_c,0,71,0
1,84805,Note_on_c,0,71,0
1,84819,Note_on_c,0,71,0
1,84857,Note_on_c,0,71,0
1,84953,Note_on_c,0,71,0
1,85017,Note_on_c,0,71,0
1,85026,Note_on_c,0,71,0
1,85100,Note_on_c,0,71,0
1,85175,Note_on_c,0,71,0
1,85178,Note_on_c,0,71,64
1,85215,Control_c,0,7,0
1,85242,Note_on_c,0,71,0
1,85423,Note_on_c,0,71,64
1,85433,Control_c,0,7,64
1,85442,Control_c,0,7,0
1,85476,Note_on_c,0,71,0
1,85533,Note_on_c,0,71,0
1,85617,Note_on_c,0,71,0
1,85640,Note_on_c,0,71,0
1,85659,Note_on_c,0,71,0
1,85671,Note_on_c,0,71,0
1,85760,Note_on_c,0,71,0
1,85776,Note_on_c,0,71,0
1,85777,Note_on_c,0,71,0
1,85800,Note_on_c,0,71,0
1,85821,Note_on_c,0,71,0
1,85847,Note_on_c,0,71,0
1,85849,Note_on_c,0,71,64
1,85871,Control_c,0,7,0
1,85884,Note_on_c,0,71,0
1,85917,Note_on_c,0,71,64
1,85950,Control_c,0,7,0
1,85966,Note_on_c,0,71,64
1,85986,Control_c,0,7,0
1,86018,Note_on_c,0,71,0
1,86069,Note_on_c,0,71,0
1,86093,Note_on_c,0,71,0
1,86106,Note_on_c,0,71,0
1,86197,Note_on_c,0,71,0
1,86237,Note_on_c,0,71,0
1,86351,Note_on_c,0,71,0
1,86435,Note_on_c,0,71,0
1,86452,Note_on_c,0,71,64
1,86530,Control_c,0,7,0
1,86536,Note_on_c,0,71,0
1,86597,Note_on_c,0,71,0
1,86620,Note_on_c,0,71,0
1,86629,Note_on_c,0,71,64
1,86683,Control_c,0,7,0
1,86710,Note_on_c,0,71,0
1,86723,Note_on_c,0,71,64
1,86747,Control_c,0,7,0
1,86749,Note_on_c,0,71,0
1,86781,Note_on_c,0,71,0
1,86794,Note_on_c,0,71,0
1,86800,Note_on_c,0,71,0
1,86882,Note_on_c,0,71,0
1,86930,Note_on_c,0,71,0
1,87005,Note_on_c,0,71,0
1,87052,Note_on_c,0,71,0
1,87092,Note_on_c,0,71,0
1,87159,Note_on_c,0,71,0
1,87175,Note_on_c,0,71,0
1,87280,Note_on_c,0,71,0
1,87300,Note_on_c,0,71,0
1,87323,Note_on_c,0,71,0
1,87327,Note_on_c,0,71,0
1,87349,Note_on_c,0,71,0
1,87381,Note_on_c,0,71,0
1,87405,Note_on_c,0,71,0
1,87502,Note_on_c,0,71,0
1,87505,Note_on_c,0,71,0
1,87526,Note_on_c,0,71,0
1,87607,Note_on_c,0,71,0
1,87620,Note_on_c,0,71,0
1,87633,Note_on_c,0,71,0
1,87659,Note_on_c,0,71,0
1,87667,Note_on_c,0,71,0
1,87667,Note_on_c,0,71,0
1,87695,Note_on_c,0,71,0
1,87717,Note_on_c,0,71,0
1,87757,Note_on_c,0,71,0
1,87811,Note_on_c,0,71,0
1,87848,Note_on_c,0,71,64
1,87924,Control_c,0,7,64
1,88025,Control_c,0,7,0
1,88045,Note_on_c,0,71,0
1,88120,Note_on_c,0,71,0
1,88193,Note_on_c,0,71,0
1,88220,Note_on_c,0,71,0
1,88261,Note_on_c,0,71,0
1,88270,Note_on_c,0,71,0
1,88319,Note_on_c,0,71,0
1,88327,Note_on_c,0,71,0
1,88430,Note_on_c,0,71,0
1,88450,Note_on_c,0,71,0
1,88461,Note_on_c,0,71,0
1,88462,Note_on_c,0,71,0
1,88609,Note_on_c,0,71,0
1,88628,Note_on_c,0,71,0
1,88657,Note_on_c,0,71,0
1,88686,Note_on_c,0,71,64
1,88708,Control_c,0,7,0
1,88753,Note_on_c,0,71,64
1,88784,Control_c,0,7,0
1,88816,Note_on_c,0,71,0
1,88842,Note_on_c,0,71,0
1,88844,Note_on_c,0,71,0
1,88865,Note_on_c,0,71,64
1,88910,Control_c,0,7,0
1,89048,Note_on_c,0,71,0
1,89078,Note_on_c,0,71,0
1,89081,Note_on_c,0,71,0
1,89158,Note_on_c,0,71,64
1,89165,Control_c,0,7,0
1,89167,Note_on_c,0,71,64
1,89185,Control_c,0,7,64
1,89220,Control_c,0,7,64
1,89240,Control_c,0,7,0
1,89274,Note_on_c,0,71,0
1,89279,Note_on_c,0,71,64
1,89327,Control_c,0,7,64
1,89330,Control_c,0,7,0
1,89421,Note_on_c,0,71,0
1,89438,Note_on_c,0,71,64
1,89465,Control_c,0,7,0
1,89481,Note_on_c,0,71,64
1,89616,Control_c,0,7,0
1,89631,Note_on_c,0,71,0
1,89637,Note_on_c,0,71,0
1,89639,Note_on_c,0,71,0
1,89640,Note_on_c,0,71,0
1,89671,Note_on_c,0,71,64
1,89697,Control_c,0,7,64
1,89738,Control_c,0,7,0
1,89771,Note_on_c,0,71,0
1,89877,Note_on_c,0,71,0
1,89887,Note_on_c,0,71,0
1,89966,Note_on_c,0,71,0
1,90056,Note_on_c,0,71,0
1,90106,Note_on_c,0,71,0
1,90113,Note_on_c,0,71,0
1,90157,Note_on_c,0,71,0
1,90186,Note_on_c,0,71,0
1,90227,Note_on_c,0,71,0
1,90263,Note_on_c,0,71,0
1,90283,Note_on_c,0,71,64
1,90327,Control_c,0,7,0
1,90352,Note_on_c,0,71,0
1,90458,Note_on_c,0,71,64
1,90505,Control_c,0,7,0
1,90506,Note_on_c,0,71,0
1,90560,Note_on_c,0,71,0
1,90580,Note_on_c,0,71,64
1,90623,Control_c,0,7,64
1,90662,Control_c,0,7,64
1,90678,Control_c,0,7,64
1,90702,Control_c,0,7,0
1,90722,Note_on_c,0,71,64
1,90761,Control_c,0,7,0
1,90865,Note_on_c,0,71,0
1,90898,Note_on_c,0,71,64
1,90904,Control_c,0,7,0
1,90951,Note_on_c,0,71,0
1,90951,Note_on_c,0,71,64
1,91079,Control_c,0,7,0
1,91085,Note_on_c,0,71,0
1,91183,Note_on_c,0,71,0
1,91185,Note_on_c,0,71,64
1,91202,Control_c,0,7,0
1,91202,Note_on_c,0,71,0
1,91240,Note_on_c,0,71,0
1,91328,Note_on_c,0,71,0
1,91406,Note_on_c,0,71,0
1,91429,Note_on_c,0,71,0
1,91436,Note_on_c,0,71,0
1,91446,Note_on_c,0,71,64
1,91478,Control_c,0,7,0
1,91568,Note_on_c,0,71,0
1,91589,Note_on_c,0,71,0
1,91604,Note_on_c,0,71,64
1,91605,Control_c,0,7,64
1,91637,Control_c,0,7,64
1,91770,Control_c,0,7,0
1,91805,Note_on_c,0,71,0
1,91821,Note_on_c,0,71,0
1,91843,Note_on_c,0,71,0
1,91882,Note_on_c,0,71,0
1,91930,Note_on_c,0,71,0
1,91930,Note_on_c,0,71,0
1,91965,Note_on_c,0,71,0
1,92014,Note_on_c,0,71,0
1,92022,Note_on_c,0,71,0
1,92068,Note_on_c,0,71,0
1,92142,Note_on_c,0,71,0
1,92162,Note_on_c,0,71,0
1,92179,Note_on_c,0,71,0
1,92262,Note_on_c,0,71,0
1,92283,Note_on_c,0,71,0
1,92355,Note_on_c,0,71,0
1,92363,Note_on_c,0,71,0
1,92419,Note_on_c,0,71,0
1,92425,Note_on_c,0,71,64
1,92469,Control_c,0,7,0
1,92506,Note_on_c,0,71,0
1,92543,Note_on_c,0,71,0
1,92596,Note_on_c,0,71,0
1,92607,Note_on_c,0,71,0
1,92655,Note_on_c,0,71,0
1,92676,Note_on_c,0,71,0
1,92677,Note_on_c,0,71,0
1,92691,Note_on_c,0,71,0
1,92721,Note_on_c,0,71,0
1,92727,Note_on_c,0,71,64
1,92734,Control_c,0,7,0
1,92737,Note_on_c,0,71,0
1,92797,Note_on_c,0,71,0
1,92822,Note_on_c,0,71,64
1,92826,Control_c,0,7,0
1,92911,Note_on_c,0,71,0
1,92936,Note_on_c,0,71,0
1,92937,Note_on_c,0,71,0
1,93001,Note_on_c,0,71,0
1,93022,Note_on_c,0,71,64
1,93061,Control_c,0,7,0
1,93083,Note_on_c,0,71,0
1,93084,Note_on_c,0,71,0
1,93282,Note_on_c,0,71,0
1,93355,Note_on_c,0,71,64
1,93373,Control_c,0,7,0
1,93461,Note_on_c,0,71,0
1,93492,Note_on_c,0,71,0
1,93496,Note_on_c,0,71,0
1,93513,Note_on_c,0,71,0
1,93520,Note_on_c,0,71,0
1,93527,Note_on_c,0,71,0
1,93531,Note_on_c,0,71,64
1,93654,Control_c,0,7,64
1,93662,Control_c,0,7,64
1,93707,Control_c,0,7,0
1,93722,Note_on_c,0,71,0
1,93734,Note_on_c,0,71,0
1,93739,Note_on_c,0,71,0
1,93778,Note_on_c,0,71,0
1,93795,Note_on_c,0,71,64
1,93827,Control_c,0,7,64
1,93952,Control_c,0,7,0
1,93984,Note_on_c,0,71,64
1,93988,Control_c,0,7,0
1,93993,Note_on_c,0,71,0
1,94034,Note_on_c,0,71,0
1,94049,Note_on_c,0,71,0
1,94089,Note_on_c,0,71,0
1,94093,Note_on_c,0,71,0
1,94095,Note_on_c,0,71,0
1,94111,Note_on_c,0,71,0
1,94162,Note_on_c,0,71,0
1,94236,Note_on_c,0,71,0
1,94254,Note_on_c,0,71,0
1,94271,Note_on_c,0,71,0
1,94276,Note_on_c,0,71,0
1,94280,Note_on_c,0,71,0
1,94287,Note_on_c,0,71,0
1,94317,Note_on_c,0,71,64
1,94490,Control_c,0,7,0
1,94495,Note_on_c,0,71,0
1,94496,Note_on_c,0,71,0
1,94499,Note_on_c,0,71,0
1,94507,Note_on_c,0,71,0
1,94521,Note_on_c,0,71,0
1,94537,Note_on_c,0,71,0
1,94637,Note_on_c,0,71,0
1,94654,Note_on_c,0,71,0
1,94670,Note_on_c,0,71,0
1,94690,Note_on_c,0,71,64
1,94746,Control_c,0,7,0
1,94785,Note_on_c,0,71,0
1,94815,Note_on_c,0,71,0
1,94861,Note_on_c,0,71,64
1,94875,Control_c,0,7,0
1,94888,Note_on_c,0,71,0
1,94898,Note_on_c,0,71,0
1,94927,Note_on_c,0,71,0
1,94942,Note_on_c,0,71,0
1,94984,Note_on_c,0,71,0
1,95063,Note_on_c,0,71,0
1,95076,Note_on_c,0,71,0
1,95086,Note_on_c,0,71,0
1,95087,Note_on_c,0,71,64
1,95101,Control_c,0,7,0
1,95115,Note_on_c,0,71,0
1,95137,Note_on_c,0,71,0
1,95266,Note_on_c,0,71,0
1,95323,Note_on_c,0,71,0
1,95328,Note_on_c,0,71,0
1,95350,Note_on_c,0,71,0
1,95361,Note_on_c,0,71,0
1,95375,Note_on_c,0,71,0
1,95377,Note_on_c,0,71,0
1,95405,Note_on_c,0,71,0
1,95415,Note_on_c,0,71,0
1,95445,Note_on_c,0,71,0
1,95489,Note_on_c,0,71,0
1,95494,Note_on_c,0,71,0
1,95523,Note_on_c,0,71,0
1,95595,Note_on_c,0,71,0
1,95601,Note_on_c,0,71,0
1,95615,Note_on_c,0,71,0
1,95618,Note_on_c,0,71,0
1,95623,Note_on_c,0,71,0
1,95630,Note_on_c,0,71,0
1,95732,Note_on_c,0,71,0
1,95748,Note_on_c,0,71,0
1,95765,Note_on_c,0,71,0
1,95789,Note_on_c,0,71,64
1,95792,Control_c,0,7,0
1,95847,Note_on_c,0,71,0
1,95910,Note_on_c,0,71,0
1,95945,Note_on_c,0,71,0
1,96038,Note_on_c,0,71,0
1,96056,Note_on_c,0,71,0
1,96132,Note_on_c,0,71,0
1,96136,Note_on_c,0,71,0
1,96154,Note_on_c,0,71,0
1,96186,Note_on_c,0,71,0
1,96255,Note_on_c,0,71,0
1,96261,Note_on_c,0,71,64
1,96424,Control_c,0,7,64
1,96466,Control_c,0,7,0
1,96530,Note_on_c,0,71,0
1,96593,Note_on_c,0,71,0
1,96649,Note_on_c,0,71,0
1,96719,Note_on_c,0,71,0
1,96780,Note_on_c,0,71,0
1,96796,Note_on_c,0,71,0
1,96801,Note_on_c,0,71,0
1,96816,Note_on_c,0,71,0
1,96840,Note_on_c,0,71,0
1,96867,Note_on_c,0,71,0
1,96877,Note_on_c,0,71,64
1,96955,Control_c,0,7,0
1,97037,Note_on_c,0,71,0
1,97044,Note_on_c,0,71,0
1,97110,Note_on_c,0,71,0
1,97137,Note_on_c,0,71,0
1,97142,Note_on_c,0,71,0
1,97164,Note_on_c,0,71,0
1,97182,Note_on_c,0,71,0
1,97212,Note_on_c,0,71,0
1,97279,Note_on_c,0,71,0
1,97310,Note_on_c,0,71,0
1,97329,Note_on_c,0,71,0
1,97339,Note_on_c,0,71,0
1,97340,Note_on_c,0,71,0
1,97350,Note_on_c,0,71,64
1,97364,Control_c,0,7,0
1,97364,Note_on_c,0,71,64
1,97388,Control_c,0,7,0
1,97390,Note_on_c,0,71,0
1,97417,Note_on_c,0,71,64
1,97434,Control_c,0,7,0
1,97461,Note_on_c,0,71,0
1,97462,Note_on_c,0,71,0
1,97474,Note_on_c,0,71,0
1,97492,Note_on_c,0,71,0
1,97503,Note_on_c,0,71,0
1,97578,Note_on_c,0,71,0
1,97648,Note_on_c,0,71,0
1,97654,Note_on_c,0,71,0
1,97674,Note_on_c,0,71,0
1,97681,Note_on_c,0,71,0
1,97687,Note_on_c,0,71,0
1,97743,Note_on_c,0,71,0
1,97758,Note_on_c,0,71,0
1,97783,Note_on_c,0,71,0
1,97815,Note_on_c,0,71,0
1,97840,Note_on_c,0,71,0
1,97896,Note_on_c,0,71,0
1,97911,Note_on_c,0,71,0
1,97913,Note_on_c,0,71,0
1,97968,Note_on_c,0,71,64
1,98071,Control_c,0,7,64
1,98114,Control_c,0,7,0
1,98126,Note_on_c,0,71,0
1,98184,Note_on_c,0,71,0
1,98201,Note_on_c,0,71,0
1,98213,Note_on_c,0,71,0
1,98224,Note_on_c,0,71,0
1,98228,Note_on_c,0,71,0
1,98262,Note_on_c,0,71,0
1,98274,Note_on_c,0,71,64
1,98313,Control_c,0,7,0
1,98353,Note_on_c,0,71,0
1,98360,Note_on_c,0,71,0
1,98424,Note_on_c,0,71,0
1,98426,Note_on_c,0,71,0
1,98476,Note_on_c,0,71,0
1,98481,Note_on_c,0,71,0
1,98495,Note_on_c,0,71,0
1,98570,Note_on_c,0,71,64
1,98579,Control_c,0,7,0
1,98588,Note_on_c,0,71,0
1,98598,Note_on_c,0,71,0
1,98655,Note_on_c,0,71,64
1,98712,Control_c,0,7,0
1,98721,Note_on_c,0,71,0
1,98782,Note_on_c,0,71,0
1,98815,Note_on_c,0,71,64
1,98822,Control_c,0,7,0
1,98945,Note_on_c,0,71,0
1,98974,Note_on_c,0,71,0
1,98981,Note_on_c,0,71,0
1,99001,Note_on_c,0,71,0
1,99038,Note_on_c,0,71,0
1,99053,Note_on_c,0,71,0
1,99069,Note_on_c,0,71,0
1,99107,Note_on_c,0,71,64
1,99136,Control_c,0,7,0
1,99146,Note_on_c,0,71,0
1,99182,Note_on_c,0,71,64
1,99203,Control_c,0,7,0
1,99216,Note_on_c,0,71,0
1,99251,Note_on_c,0,71,0
1,99283,Note_on_c,0,71,0
1,99284,Note_on_c,0,71,64
1,99307,Control_c,0,7,0
1,99323,Note_on_c,0,71,0
1,99340,Note_on_c,0,71,0
1,99371,Note_on_c,0,71,0
1,99386,Note_on_c,0,71,64
1,99477,Control_c,0,7,0
1,99484,Note_on_c,0,71,64
1,99498,Control_c,0,7,0
1,99518,Note_on_c,0,71,0
1,99523,Note_on_c,0,71,0
1,99584,Note_on_c,0,71,0
1,99619,Note_on_c,0,71,64
1,99620,Control_c,0,7,64
1,99728,Control_c,0,7,0
1,99766,Note_on_c,0,71,64
1,99773,Control_c,0,7,64
1,99774,Control_c,0,7,64
1,99777,Control_c,0,7,0
1,99805,Note_on_c,0,71,0
1,99896,Note_on_c,0,71,0
1,99923,Note_on_c,0,71,0
1,99929,Note_on_c,0,71,0
1,99929,End_track,,,
0,0,End_of_file,,,
